<svg width="100" height="100" viewBox="0 0 100 100" fill="none" xmlns="http://www.w3.org/2000/svg">
<g clip-path="url(#clip0_126_198)">
<circle cx="50" cy="50" r="50" fill="#1BB1F8"/>
<circle cx="50" cy="50" r="50" fill="#1BB1F8"/>
<path d="M95.9684 69.6997C88.3219 87.5183 70.6181 99.9988 49.9993 99.9988C29.3806 99.9988 11.6768 87.5183 4.03027 69.6997C16.9653 65.2072 32.8414 62.5609 49.9993 62.5609C67.1572 62.5609 83.0334 65.2072 95.9684 69.6997Z" fill="#058CCC"/>
<ellipse cx="44.3004" cy="86.8508" rx="12.0807" ry="3.08826" fill="black"/>
<path fill-rule="evenodd" clip-rule="evenodd" d="M33.7202 29.0538C33.7202 19.5322 41.3451 11.8135 50.7509 11.8135C60.1567 11.8135 67.7816 19.5322 67.7816 29.0538C67.7816 32.5047 66.3559 35.328 64.8791 38.2524C64.6422 38.7216 64.4039 39.1934 64.17 39.6708L45.7169 77.7152C45.6471 77.8591 45.4903 77.9393 45.3327 77.9117L43.1263 77.5249L39.8341 57.8618L34.7405 36.3815C34.1339 33.8186 33.7202 31.5373 33.7202 29.0538ZM52.8291 37.9103C57.6931 37.9103 61.6361 33.9451 61.6361 29.0538C61.6361 24.1626 57.6931 20.1974 52.8291 20.1974C47.9651 20.1974 44.0221 24.1626 44.0221 29.0538C44.0221 33.9451 47.9651 37.9103 52.8291 37.9103Z" fill="#C48326"/>
<path fill-rule="evenodd" clip-rule="evenodd" d="M32.2197 28.8601C32.2197 19.646 39.6399 12.1764 48.7931 12.1764C57.9463 12.1764 65.3664 19.646 65.3664 28.8601C65.3664 32.1997 63.979 34.9318 62.5419 37.7618C62.3113 38.2158 62.0795 38.6724 61.8519 39.1344L43.1263 77.525L33.2126 35.9512C32.6223 33.4711 32.2197 31.2635 32.2197 28.8601ZM48.7931 37.4307C53.5265 37.4307 57.3636 33.5935 57.3636 28.8601C57.3636 24.1268 53.5265 20.2896 48.7931 20.2896C44.0597 20.2896 40.2226 24.1268 40.2226 28.8601C40.2226 33.5935 44.0597 37.4307 48.7931 37.4307Z" fill="#FFB140"/>
</g>
<defs>
<clipPath id="clip0_126_198">
<rect width="100" height="100" fill="white"/>
</clipPath>
</defs>
</svg>
