<svg width="400" height="325" viewBox="0 0 400 325" fill="none" xmlns="http://www.w3.org/2000/svg">
<g clip-path="url(#clip0_68_344)">
<circle cx="186.898" cy="141.557" r="141.5" fill="#1BB1F8"/>
<path opacity="0.05" fill-rule="evenodd" clip-rule="evenodd" d="M57.3332 84.5895H71.974V59.6855H71.4745C72.7326 57.915 74.0304 56.1747 75.3666 54.4659V56.2895H100.246V31.3855H98.0947C99.9063 29.9234 101.755 28.5051 103.638 27.1321V27.9895H128.517V12.6228C129.641 12.1135 130.771 11.6184 131.91 11.1377V27.9895H156.789V3.26608C157.915 3.02208 159.046 2.79148 160.182 2.57446V27.9895H185.061V0.0675952C185.672 0.0598117 186.285 0.0559082 186.898 0.0559082C187.417 0.0559082 187.936 0.0587025 188.454 0.0642769V27.9895H213.333V2.52078C214.468 2.7354 215.599 2.96358 216.725 3.20516V27.9895H241.604V11.0188C242.743 11.4965 243.874 11.9886 244.997 12.495V27.9895H269.876V26.9266C271.857 28.3634 273.8 29.8503 275.702 31.3855H273.269V56.2895H298.148V54.1056C299.584 55.9299 300.976 57.7904 302.322 59.6855H301.54V84.5895H316.464C316.959 85.7139 317.44 86.846 317.906 87.9855H301.54V112.889H325.493C325.725 114.017 325.943 115.149 326.148 116.285H301.54V141.189H328.398C328.398 141.312 328.398 141.434 328.398 141.556C328.398 142.568 328.388 143.578 328.367 144.585H301.54V169.489H325.642C325.414 170.626 325.173 171.758 324.918 172.885H301.54V197.789H316.784C316.29 198.929 315.781 200.061 315.258 201.185H301.54V224.516C300.319 226.201 299.061 227.858 297.769 229.485H273.269V253.647C271.422 255.072 269.54 256.452 267.623 257.785H244.997V270.617C243.874 271.123 242.743 271.615 241.604 272.093V257.785H216.725V279.907C215.599 280.148 214.468 280.376 213.333 280.591V257.785H188.454V283.048C187.936 283.053 187.417 283.056 186.898 283.056C186.285 283.056 185.672 283.052 185.061 283.044V257.785H160.182V280.537C159.046 280.32 157.915 280.09 156.789 279.846V257.785H131.91V271.974C130.771 271.493 129.641 270.998 128.517 270.489V257.785H106.173C104.159 256.383 102.182 254.93 100.246 253.428V229.485H76.0281C74.6355 227.732 73.2837 225.944 71.974 224.125V201.185H58.5389C58.0159 200.061 57.5071 198.929 57.0129 197.789H71.974V172.885H48.8787C48.624 171.758 48.3827 170.626 48.1551 169.489H71.974V144.585H45.4302C45.4091 143.578 45.3984 142.568 45.3984 141.556C45.3984 141.434 45.3986 141.312 45.3989 141.189H71.974V116.285H47.6485C47.8534 115.149 48.0719 114.017 48.3039 112.889H71.974V87.9855H55.8908C56.3572 86.846 56.8381 85.7139 57.3332 84.5895ZM103.638 56.2895V31.3855H128.517V56.2895H103.638ZM131.91 56.2895V31.3855H156.789V56.2895H131.91ZM160.182 56.2895V31.3855H185.061V56.2895H160.182ZM188.454 56.2895V31.3855H213.333V56.2895H188.454ZM216.725 56.2895V31.3855H241.604V56.2895H216.725ZM244.997 56.2895V31.3855H269.876V56.2895H244.997ZM273.269 59.6855H298.148V84.5895H273.269V59.6855ZM273.269 87.9855H298.148V112.889H273.269V87.9855ZM273.269 116.285H298.148V141.189H273.269V116.285ZM273.269 144.585H298.148V169.489H273.269V144.585ZM273.269 172.885H298.148V197.789H273.269V172.885ZM273.269 201.185H298.148V226.089H273.269V201.185ZM269.876 229.485V254.389H244.997V229.485H269.876ZM241.604 229.485V254.389H216.725V229.485H241.604ZM213.333 229.485V254.389H188.454V229.485H213.333ZM185.061 229.485V254.389H160.182V229.485H185.061ZM156.789 229.485V254.389H131.91V229.485H156.789ZM128.517 229.485V254.389H103.638V229.485H128.517ZM100.246 226.089H75.3666V201.185H100.246V226.089ZM100.246 197.789H75.3666V172.885H100.246V197.789ZM100.246 169.489H75.3666V144.585H100.246V169.489ZM100.246 141.189H75.3666V116.285H100.246V141.189ZM100.246 112.889H75.3666V87.9855H100.246V112.889ZM100.246 84.5895H75.3666V59.6855H100.246V84.5895ZM103.638 84.5895V59.6855H128.517V84.5895H103.638ZM131.91 84.5895V59.6855H156.789V84.5895H131.91ZM160.182 84.5895V59.6855H185.061V84.5895H160.182ZM188.454 84.5895V59.6855H213.333V84.5895H188.454ZM216.725 84.5895V59.6855H241.604V84.5895H216.725ZM244.997 84.5895V59.6855H269.876V84.5895H244.997ZM244.997 87.9855H269.876V112.889H244.997V87.9855ZM244.997 116.285H269.876V141.189H244.997V116.285ZM244.997 144.585H269.876V169.489H244.997V144.585ZM244.997 172.885H269.876V197.789H244.997V172.885ZM244.997 201.185H269.876V226.089H244.997V201.185ZM241.604 201.185V226.089H216.725V201.185H241.604ZM213.333 201.185V226.089H188.454V201.185H213.333ZM185.061 201.185V226.089H160.182V201.185H185.061ZM156.789 201.185V226.089H131.91V201.185H156.789ZM128.517 201.185V226.089H103.638V201.185H128.517ZM128.517 197.789H103.638V172.885H128.517V197.789ZM128.517 169.489H103.638V144.585H128.517V169.489ZM128.517 141.189H103.638V116.285H128.517V141.189ZM128.517 112.889H103.638V87.9855H128.517V112.889ZM131.91 112.889V87.9855H156.789V112.889H131.91ZM160.182 112.889V87.9855H185.061V112.889H160.182ZM188.454 112.889V87.9855H213.333V112.889H188.454ZM216.725 112.889V87.9855H241.604V112.889H216.725ZM216.725 116.285H241.604V141.189H216.725V116.285ZM216.725 144.585H241.604V169.489H216.725V144.585ZM216.725 172.885H241.604V197.789H216.725V172.885ZM213.333 172.885V197.789H188.454V172.885H213.333ZM185.061 172.885V197.789H160.182V172.885H185.061ZM156.789 172.885V197.789H131.91V172.885H156.789ZM156.789 169.489H131.91V144.585H156.789V169.489ZM156.789 141.189H131.91V116.285H156.789V141.189ZM160.182 141.189V116.285H185.061V141.189H160.182ZM188.454 141.189V116.285H213.333V141.189H188.454ZM188.454 144.585H213.333V169.489H188.454V144.585ZM185.061 144.585V169.489H160.182V144.585H185.061Z" fill="black"/>
<path d="M86.9391 171.88L180.897 170.767V146.029H61.6915C45.1417 146.874 54.3226 160.404 59.5172 166.323C63.5916 170.966 73.588 171.604 86.9391 171.88Z" fill="black"/>
<path d="M129.986 41.3157C110.788 41.3157 102.265 48.9321 97.1456 75.0718L77.1324 162.243C76.9874 162.875 77.4723 163.475 78.1203 163.467L180.402 162.117L163.162 75.2193C159.237 52.7282 147.147 41.3157 129.986 41.3157Z" fill="#EF850B"/>
<path d="M161.917 75.072C159.034 54.2558 144.425 41.3693 126.539 41.3693L283.758 40.7007C288.841 40.7007 295.544 45.0768 300.255 65.4636C301.815 72.2174 308.349 101.777 316.782 139.926C329.631 198.052 346.887 276.117 357.671 323.825C357.813 324.45 357.33 325.013 356.689 325.013H343.384C344.955 322.958 345.887 320.399 345.887 317.625C345.887 310.851 340.329 305.359 333.472 305.359C326.615 305.359 321.056 310.851 321.056 317.625C321.056 320.399 321.988 322.958 323.56 325.013H312.216C312.634 323.785 312.861 322.469 312.861 321.102C312.861 314.328 307.302 308.836 300.445 308.836C293.588 308.836 288.029 314.328 288.029 321.102C288.029 322.469 288.256 323.785 288.674 325.013H280.498C280.726 324.084 280.847 323.114 280.847 322.116C280.847 315.342 275.288 309.85 268.431 309.85C261.574 309.85 256.016 315.342 256.016 322.116C256.016 323.114 256.136 324.084 256.364 325.013H245.503C245.503 318.239 239.944 312.747 233.088 312.747C226.231 312.747 220.672 318.239 220.672 325.013H212.332C211.855 325.013 211.444 324.676 211.351 324.208L161.917 75.072Z" fill="#FFB140"/>
<path fill-rule="evenodd" clip-rule="evenodd" d="M303.515 141.522C303.534 142.074 303.102 142.537 302.55 142.556L297.447 142.73C296.895 142.749 296.433 142.317 296.414 141.765C296.395 141.213 296.827 140.75 297.379 140.731L302.481 140.557C303.033 140.538 303.496 140.97 303.515 141.522ZM293.31 141.871C293.329 142.423 292.897 142.886 292.345 142.904L282.14 143.253C281.589 143.272 281.126 142.84 281.107 142.288C281.088 141.736 281.52 141.273 282.072 141.254L292.277 140.906C292.829 140.887 293.291 141.319 293.31 141.871ZM278.003 142.394C278.022 142.946 277.59 143.409 277.038 143.428L266.834 143.777C266.282 143.795 265.819 143.363 265.8 142.811C265.781 142.259 266.213 141.797 266.765 141.778L276.97 141.429C277.522 141.41 277.985 141.842 278.003 142.394ZM262.697 142.917C262.715 143.469 262.283 143.932 261.731 143.951L251.527 144.3C250.975 144.319 250.512 143.887 250.493 143.335C250.474 142.783 250.906 142.32 251.458 142.301L261.663 141.952C262.215 141.933 262.678 142.365 262.697 142.917ZM247.39 143.441C247.408 143.993 246.976 144.455 246.424 144.474L236.22 144.823C235.668 144.842 235.205 144.41 235.186 143.858C235.167 143.306 235.599 142.843 236.151 142.824L246.356 142.475C246.908 142.457 247.371 142.889 247.39 143.441ZM232.083 143.964C232.102 144.516 231.669 144.979 231.117 144.998L220.913 145.346C220.361 145.365 219.898 144.933 219.879 144.381C219.86 143.829 220.293 143.366 220.845 143.348L231.049 142.999C231.601 142.98 232.064 143.412 232.083 143.964ZM216.776 144.487C216.795 145.039 216.363 145.502 215.811 145.521L205.606 145.87C205.054 145.889 204.591 145.456 204.572 144.904C204.554 144.353 204.986 143.89 205.538 143.871L215.742 143.522C216.294 143.503 216.757 143.935 216.776 144.487ZM201.469 145.011C201.488 145.563 201.056 146.025 200.504 146.044L195.401 146.219C194.849 146.237 194.387 145.805 194.368 145.253C194.349 144.701 194.781 144.239 195.333 144.22L200.435 144.045C200.987 144.026 201.45 144.459 201.469 145.011Z" fill="white"/>
<path fill-rule="evenodd" clip-rule="evenodd" d="M312.351 184.361C312.37 184.913 311.938 185.375 311.386 185.394L306.283 185.569C305.731 185.588 305.269 185.155 305.25 184.603C305.231 184.051 305.663 183.589 306.215 183.57L311.317 183.395C311.869 183.377 312.332 183.809 312.351 184.361ZM302.146 184.709C302.165 185.261 301.733 185.724 301.181 185.743L290.976 186.092C290.424 186.111 289.962 185.679 289.943 185.127C289.924 184.575 290.356 184.112 290.908 184.093L301.113 183.744C301.665 183.725 302.127 184.158 302.146 184.709ZM286.839 185.233C286.858 185.785 286.426 186.247 285.874 186.266L275.67 186.615C275.118 186.634 274.655 186.202 274.636 185.65C274.617 185.098 275.049 184.635 275.601 184.616L285.806 184.268C286.358 184.249 286.821 184.681 286.839 185.233ZM271.532 185.756C271.551 186.308 271.119 186.771 270.567 186.79L260.363 187.138C259.811 187.157 259.348 186.725 259.329 186.173C259.31 185.621 259.742 185.159 260.294 185.14L270.499 184.791C271.051 184.772 271.514 185.204 271.532 185.756ZM256.226 186.279C256.244 186.831 255.812 187.294 255.26 187.313L245.056 187.662C244.504 187.681 244.041 187.248 244.022 186.697C244.003 186.145 244.435 185.682 244.987 185.663L255.192 185.314C255.744 185.295 256.207 185.727 256.226 186.279ZM240.919 186.803C240.938 187.355 240.505 187.817 239.953 187.836L229.749 188.185C229.197 188.204 228.734 187.772 228.715 187.22C228.696 186.668 229.129 186.205 229.68 186.186L239.885 185.837C240.437 185.819 240.9 186.251 240.919 186.803ZM225.612 187.326C225.631 187.878 225.198 188.341 224.647 188.359L214.442 188.708C213.89 188.727 213.427 188.295 213.408 187.743C213.389 187.191 213.822 186.728 214.374 186.71L224.578 186.361C225.13 186.342 225.593 186.774 225.612 187.326ZM210.305 187.849C210.324 188.401 209.892 188.864 209.34 188.883L204.237 189.057C203.685 189.076 203.223 188.644 203.204 188.092C203.185 187.54 203.617 187.077 204.169 187.058L209.271 186.884C209.823 186.865 210.286 187.297 210.305 187.849Z" fill="white"/>
<path d="M169.148 53.9043L288.062 53.9044" stroke="black" stroke-width="2" stroke-linecap="round" stroke-linejoin="round"/>
<path fill-rule="evenodd" clip-rule="evenodd" d="M325.818 233.549C325.838 234.101 325.406 234.564 324.854 234.584L215.891 238.488C215.339 238.508 214.875 238.076 214.855 237.524C214.836 236.973 215.267 236.509 215.819 236.489L324.783 232.585C325.335 232.565 325.798 232.997 325.818 233.549Z" fill="white"/>
<path fill-rule="evenodd" clip-rule="evenodd" d="M175.652 69.9565C175.652 69.4043 176.1 68.9565 176.652 68.9565H288.461C289.013 68.9565 289.461 69.4043 289.461 69.9565C289.461 70.5088 289.013 70.9565 288.461 70.9565H176.652C176.1 70.9565 175.652 70.5088 175.652 69.9565Z" fill="white"/>
<path fill-rule="evenodd" clip-rule="evenodd" d="M329.367 250.759C329.389 251.311 328.959 251.776 328.407 251.798L215.362 256.234C214.81 256.256 214.345 255.826 214.323 255.274C214.302 254.722 214.731 254.258 215.283 254.236L328.329 249.799C328.881 249.778 329.346 250.208 329.367 250.759Z" fill="white"/>
<path fill-rule="evenodd" clip-rule="evenodd" d="M179.896 86.0999C179.896 85.5476 180.344 85.0999 180.896 85.0999H292.875C293.427 85.0999 293.875 85.5476 293.875 86.0999C293.875 86.6521 293.427 87.0999 292.875 87.0999H180.896C180.344 87.0999 179.896 86.6521 179.896 86.0999Z" fill="white"/>
<path fill-rule="evenodd" clip-rule="evenodd" d="M333.626 267.774C333.66 268.325 333.241 268.8 332.689 268.833L216.982 275.932C216.431 275.966 215.956 275.546 215.923 274.995C215.889 274.444 216.308 273.97 216.86 273.936L332.567 266.837C333.118 266.803 333.593 267.223 333.626 267.774Z" fill="white"/>
<path fill-rule="evenodd" clip-rule="evenodd" d="M185.916 104.56C185.916 104.008 186.364 103.56 186.916 103.56H296.286C296.838 103.56 297.286 104.008 297.286 104.56C297.286 105.112 296.838 105.56 296.286 105.56H186.916C186.364 105.56 185.916 105.112 185.916 104.56Z" fill="white"/>
<path fill-rule="evenodd" clip-rule="evenodd" d="M334.868 284.631C334.903 285.182 334.485 285.657 333.934 285.692L219.113 292.968C218.562 293.003 218.087 292.585 218.052 292.033C218.017 291.482 218.436 291.007 218.987 290.972L333.807 283.696C334.358 283.661 334.834 284.08 334.868 284.631Z" fill="white"/>
<path fill-rule="evenodd" clip-rule="evenodd" d="M296.875 125.557C296.886 126.109 296.447 126.566 295.895 126.577L193.167 128.635C192.614 128.646 192.158 128.208 192.147 127.656C192.136 127.103 192.574 126.647 193.126 126.636L295.855 124.577C296.407 124.566 296.864 125.005 296.875 125.557Z" fill="white"/>
<path fill-rule="evenodd" clip-rule="evenodd" d="M168.148 53.9043C168.148 53.352 168.596 52.9043 169.148 52.9043L288.062 52.9044C288.615 52.9044 289.062 53.3521 289.062 53.9044C289.062 54.4567 288.615 54.9044 288.062 54.9044L169.148 54.9043C168.596 54.9043 168.148 54.4566 168.148 53.9043Z" fill="white"/>
<path d="M307.726 194.808L303.855 194.918L311.81 222.702L315.822 222.522L307.726 194.808Z" fill="black"/>
<path d="M318.707 222.392L324.557 222.13L316.768 194.552L310.806 194.721L318.707 222.392Z" fill="black"/>
<path d="M308.917 222.832L300.752 195.006L296.718 195.12L304.665 223.022L308.917 222.832Z" fill="black"/>
<path d="M301.724 223.154L293.648 195.207L277.517 195.664L285.452 223.884L301.724 223.154Z" fill="black"/>
<path d="M282.535 224.015L274.404 195.752L270.569 195.86L278.459 224.198L282.535 224.015Z" fill="black"/>
<path d="M275.594 224.326L267.497 195.947L263.343 196.065L271.366 224.516L275.594 224.326Z" fill="black"/>
<path d="M268.425 224.648L260.272 196.152L245.731 196.564L253.76 225.306L268.425 224.648Z" fill="black"/>
<path d="M250.843 225.437L242.616 196.652L238.781 196.76L246.663 225.624L250.843 225.437Z" fill="black"/>
<path d="M243.795 225.753L235.707 196.848L231.583 196.964L239.57 225.942L243.795 225.753Z" fill="black"/>
<path d="M236.626 226.074L228.509 197.051L212.597 197.502L220.366 226.804L236.626 226.074Z" fill="black"/>
<path d="M217.605 226.928L209.39 197.593L204.996 197.717L211.931 227.182L217.605 226.928Z" fill="black"/>
<path d="M207.856 172.024L203.323 172.222L203.008 165.007L207.336 164.818C208.811 164.754 209.636 165.344 209.685 166.474C209.724 167.368 209.278 168.035 208.076 168.174L208.08 168.271C209.42 168.309 210.095 168.949 210.137 169.918C210.191 171.145 209.471 171.953 207.856 172.024ZM204.686 166.391L204.748 167.801L207.278 167.691C207.871 167.665 208.109 167.449 208.088 166.954C208.066 166.459 207.798 166.255 207.195 166.281L204.686 166.391ZM204.806 169.136L204.874 170.698L207.599 170.579C208.255 170.55 208.516 170.334 208.49 169.752C208.465 169.181 208.187 168.989 207.53 169.017L204.806 169.136Z" fill="black"/>
<path d="M213.7 171.876C211.859 171.957 210.573 170.913 210.499 169.211C210.423 167.489 211.614 166.347 213.455 166.267C215.297 166.186 216.582 167.22 216.658 168.942C216.732 170.644 215.542 171.796 213.7 171.876ZM213.638 170.444C214.725 170.397 215.095 169.96 215.053 169.013C215.012 168.065 214.605 167.64 213.518 167.688C212.419 167.736 212.062 168.194 212.103 169.141C212.144 170.089 212.54 170.492 213.638 170.444Z" fill="black"/>
<path d="M220.314 171.588C218.473 171.668 217.187 170.624 217.113 168.923C217.037 167.2 218.228 166.058 220.069 165.978C221.911 165.897 223.196 166.931 223.272 168.654C223.346 170.355 222.156 171.507 220.314 171.588ZM220.252 170.156C221.339 170.108 221.709 169.671 221.667 168.724C221.626 167.776 221.219 167.352 220.132 167.399C219.033 167.447 218.676 167.905 218.717 168.853C218.758 169.8 219.154 170.204 220.252 170.156Z" fill="black"/>
<path d="M225.664 171.246L224.049 171.317L223.734 164.103L225.349 164.032L225.516 167.854L226.743 167.801L228.034 165.738L229.951 165.654L228.094 168.346L230.154 171.05L228.248 171.133L226.817 169.243L225.579 169.297L225.664 171.246Z" fill="black"/>
<path d="M231.934 165.017L230.319 165.088L230.264 163.817L231.879 163.747L231.934 165.017ZM232.194 170.961L230.579 171.032L230.343 165.637L231.958 165.567L232.194 170.961Z" fill="black"/>
<path d="M234.654 170.854L233.039 170.924L232.804 165.53L234.3 165.464L234.373 167.123L234.47 167.118C234.57 166.208 235.179 165.318 236.589 165.257C238.064 165.192 238.806 166.109 238.858 167.304L239.004 170.664L237.389 170.734L237.266 167.913C237.229 167.052 236.857 166.701 235.867 166.744C234.844 166.789 234.495 167.214 234.535 168.13L234.654 170.854Z" fill="black"/>
<path d="M242.166 169.976C240.562 170.046 239.594 169.128 239.528 167.609C239.462 166.102 240.4 165.09 242.015 165.02C243.113 164.972 243.92 165.411 244.133 166.34L244.219 166.337L244.162 165.034L245.67 164.968L245.871 169.576C245.953 171.461 244.848 172.35 242.921 172.435C241.177 172.511 240.045 171.783 239.985 170.427L241.6 170.356C241.627 170.959 241.872 171.132 242.97 171.084C244.004 171.039 244.306 170.81 244.26 169.755L244.207 168.538L244.121 168.542C243.984 169.346 243.372 169.923 242.166 169.976ZM241.154 167.539C241.189 168.335 241.653 168.606 242.666 168.562C243.699 168.517 244.193 168.204 244.16 167.461L244.155 167.343C244.123 166.611 243.594 166.353 242.593 166.397C241.559 166.442 241.119 166.742 241.154 167.539Z" fill="black"/>
<path d="M250.038 170.182L248.423 170.253L248.108 163.038L249.723 162.968L250.038 170.182Z" fill="black"/>
<path d="M254.447 169.99L250.97 170.141L250.655 162.927L254.132 162.775C256.447 162.674 257.971 163.956 258.069 166.217C258.168 168.479 256.762 169.888 254.447 169.99ZM254.196 164.229L252.333 164.31L252.521 168.617L254.384 168.536C255.848 168.472 256.422 168.026 256.347 166.293C256.271 164.559 255.66 164.165 254.196 164.229Z" fill="black"/>
<path d="M262.406 166.114L260.327 166.205L260.246 164.332L262.324 164.241L262.406 166.114ZM262.559 169.635L260.481 169.726L260.399 167.842L262.477 167.751L262.559 169.635Z" fill="black"/>
<path d="M269.052 168.532L267.996 170.385L266.111 169.143L267.405 167.448L267.335 167.283L265.273 166.826L265.873 164.657L267.904 165.388L268.046 165.255L267.806 163.143L270.054 163.045L269.999 165.17L270.152 165.29L272.133 164.405L272.899 166.515L270.842 167.13L270.787 167.3L272.244 168.876L270.455 170.299L269.283 168.522L269.052 168.532Z" fill="#1BB1F8"/>
<path d="M277.298 168.172L276.242 170.025L274.357 168.784L275.651 167.088L275.58 166.923L273.519 166.467L274.119 164.297L276.15 165.028L276.292 164.896L276.052 162.784L278.299 162.686L278.245 164.81L278.398 164.93L280.379 164.045L281.145 166.155L279.088 166.77L279.033 166.941L280.49 168.516L278.701 169.939L277.529 168.162L277.298 168.172Z" fill="#1BB1F8"/>
<path d="M285.543 167.812L284.488 169.666L282.603 168.424L283.897 166.728L283.826 166.563L281.765 166.107L282.365 163.937L284.396 164.668L284.537 164.536L284.298 162.424L286.545 162.326L286.491 164.451L286.643 164.57L288.625 163.685L289.391 165.795L287.334 166.41L287.278 166.581L288.736 168.156L286.946 169.579L285.774 167.802L285.543 167.812Z" fill="#1BB1F8"/>
<path d="M293.789 167.452L292.734 169.306L290.849 168.064L292.143 166.368L292.072 166.203L290.011 165.747L290.611 163.577L292.642 164.308L292.783 164.176L292.544 162.064L294.791 161.966L294.737 164.091L294.889 164.21L296.871 163.325L297.637 165.435L295.58 166.05L295.524 166.221L296.982 167.796L295.192 169.219L294.02 167.442L293.789 167.452Z" fill="#1BB1F8"/>
<path d="M302.035 167.093L300.98 168.946L299.095 167.704L300.388 166.009L300.318 165.844L298.257 165.387L298.857 163.218L300.888 163.948L301.029 163.816L300.79 161.704L303.037 161.606L302.983 163.731L303.135 163.85L305.117 162.965L305.882 165.075L303.826 165.691L303.77 165.861L305.228 167.437L303.438 168.86L302.266 167.082L302.035 167.093Z" fill="#1BB1F8"/>
</g>
<defs>
<clipPath id="clip0_68_344">
<rect width="400" height="325" fill="white"/>
</clipPath>
</defs>
</svg>
