<svg width="100" height="100" viewBox="0 0 100 100" fill="none" xmlns="http://www.w3.org/2000/svg">
<g clip-path="url(#clip0_120_198)">
<circle cx="50" cy="50" r="50" fill="#1BB1F8"/>
<circle cx="50" cy="50" r="50" fill="#1BB1F8"/>
<path d="M95.9689 69.6998C88.3224 87.5184 70.6186 99.9989 49.9998 99.9989C29.3811 99.9989 11.6773 87.5184 4.03076 69.6998C16.9658 65.2074 32.8419 62.561 49.9998 62.561C67.1577 62.561 83.0339 65.2074 95.9689 69.6998Z" fill="#058CCC"/>
<ellipse cx="50.0009" cy="87.946" rx="17.4447" ry="3.31345" fill="#3E2787"/>
<path fill-rule="evenodd" clip-rule="evenodd" d="M53.5662 23.9766C53.9125 24.0403 54.1415 24.3726 54.0779 24.7189L53.0829 30.1291C53.0192 30.4754 52.6869 30.7045 52.3406 30.6408C51.9943 30.5771 51.7652 30.2448 51.8289 29.8985L52.8239 24.4883C52.8876 24.142 53.2199 23.9129 53.5662 23.9766Z" fill="white"/>
<path d="M50.5522 22.0623C50.8113 20.8907 51.9711 20.1509 53.1427 20.41L55.9159 21.0232C57.0875 21.2823 57.8273 22.4421 57.5682 23.6137C57.3091 24.7853 56.1493 25.5251 54.9777 25.266L52.2045 24.6527C51.0329 24.3937 50.2931 23.2339 50.5522 22.0623Z" fill="white"/>
<circle cx="37.0439" cy="17.6298" r="2.47599" fill="white"/>
<path d="M51.0201 25.7238C50.9902 25.5712 50.9567 25.4187 50.9194 25.2663C49.4936 19.4339 43.1693 15.9692 36.7938 17.5278C30.4183 19.0864 26.4058 25.078 27.8317 30.9105C27.8689 31.0629 27.9095 31.2137 27.9534 31.3628C27.8109 29.6511 32.5535 27.0984 38.7624 25.5805C44.9714 24.0626 50.3568 24.1393 51.0201 25.7238Z" fill="#F58C12"/>
<ellipse cx="39.52" cy="28.6762" rx="11.8838" ry="3.18735" transform="rotate(-13.7374 39.52 28.6762)" fill="#DE7700"/>
<path d="M39.4992 25.4065L40.4631 30.045C40.5347 30.3897 40.3133 30.7272 39.9686 30.7989C39.6239 30.8705 39.2864 30.6491 39.2148 30.3044L38.2593 25.7061C38.4258 25.6634 38.5935 25.6214 38.7622 25.5801C39.0093 25.5197 39.255 25.4618 39.4992 25.4065Z" fill="white"/>
<path d="M78.7287 55.8577C77.6278 68.9647 67.1318 78.2043 55.2237 77.204C43.3156 76.2038 34.5046 65.3425 35.6056 52.2354C36.7066 39.1283 47.2525 29.3138 59.1607 30.314C71.0688 31.3143 79.8297 42.7506 78.7287 55.8577Z" fill="#FFB140"/>
<path d="M40.3419 75.7131L55.3419 77.2131L47.9294 74.7381L40.3419 75.7131Z" fill="#FFB140"/>
<path d="M46.1919 28.4381L60.3044 30.4256L53.4919 31.8006L46.1919 28.4381Z" fill="#FFB140"/>
<path d="M64.6526 53.8574C63.5516 66.9645 53.0057 76.7791 41.0976 75.7788C29.1894 74.7785 20.4285 63.3423 21.5295 50.2352C22.6304 37.1281 33.1764 27.3136 45.0845 28.3138C56.9926 29.3141 65.7536 40.7503 64.6526 53.8574Z" fill="#FFCE71"/>
<path d="M62.6034 53.6958C61.6066 65.5632 52.0581 74.4495 41.2762 73.5439C30.4943 72.6382 22.562 62.2836 23.5588 50.4161C24.5557 38.5487 34.1042 29.6624 44.8861 30.5681C55.6679 31.4737 63.6003 41.8284 62.6034 53.6958Z" fill="white"/>
<path fill-rule="evenodd" clip-rule="evenodd" d="M52.6109 35.3701C52.7617 35.4675 52.8049 35.6687 52.7075 35.8194L51.1254 38.268C51.0279 38.4188 50.8268 38.462 50.676 38.3646C50.5252 38.2672 50.482 38.066 50.5794 37.9152L52.1616 35.4666C52.259 35.3159 52.4602 35.2726 52.6109 35.3701Z" fill="black"/>
<path fill-rule="evenodd" clip-rule="evenodd" d="M35.4137 66.4998C35.5644 66.5972 35.6077 66.7984 35.5103 66.9492L33.9281 69.3978C33.8307 69.5485 33.6295 69.5918 33.4787 69.4943C33.328 69.3969 33.2847 69.1958 33.3821 69.045L34.9643 66.5964C35.0617 66.4457 35.2629 66.4024 35.4137 66.4998Z" fill="black"/>
<path fill-rule="evenodd" clip-rule="evenodd" d="M58.3667 59.348C58.2738 59.5016 58.074 59.5508 57.9204 59.4579L55.426 57.949C55.2724 57.8561 55.2232 57.6563 55.3161 57.5027C55.409 57.3492 55.6088 57.3 55.7624 57.3929L58.2568 58.9017C58.4104 58.9946 58.4596 59.1944 58.3667 59.348Z" fill="black"/>
<path fill-rule="evenodd" clip-rule="evenodd" d="M32.4585 47.675C32.3656 47.8286 32.1658 47.8778 32.0122 47.7849L29.5178 46.2761C29.3642 46.1832 29.315 45.9833 29.4079 45.8298C29.5008 45.6762 29.7006 45.627 29.8542 45.7199L32.3486 47.2287C32.5022 47.3216 32.5514 47.5215 32.4585 47.675Z" fill="black"/>
<path d="M42.2187 53.3002C42.1565 54.0407 41.5607 54.5952 40.8879 54.5386C40.2152 54.4821 39.7202 53.836 39.7824 53.0955C39.8446 52.3551 40.4404 51.8006 41.1132 51.8571C41.7859 51.9136 42.2809 52.5597 42.2187 53.3002Z" fill="black"/>
<path fill-rule="evenodd" clip-rule="evenodd" d="M48.6111 40.5018C48.7289 40.5737 48.7661 40.7276 48.6942 40.8454L41.6889 52.3185L41.2622 52.0579L48.2674 40.5848C48.3394 40.467 48.4932 40.4298 48.6111 40.5018Z" fill="black"/>
<path fill-rule="evenodd" clip-rule="evenodd" d="M41.5061 53.9074C41.623 53.8339 41.7773 53.8691 41.8508 53.986L46.429 61.267C46.5025 61.3839 46.4674 61.5382 46.3505 61.6117C46.2336 61.6852 46.0793 61.65 46.0058 61.5331L41.4276 54.2521C41.3541 54.1352 41.3892 53.9809 41.5061 53.9074Z" fill="black"/>
<path d="M30.0292 41.5109C24.2373 50.9642 26.7317 62.0927 28.7029 66.4752C20.0392 54.7463 24.6468 43.2911 28.0336 39.0296C34.7508 29.4197 44.4233 29.9669 48.42 31.4417C44.703 30.8592 35.821 32.0575 30.0292 41.5109Z" fill="black"/>
<path fill-rule="evenodd" clip-rule="evenodd" d="M41.366 73.0879C51.8835 73.9713 61.2707 65.2949 62.2523 53.6085C63.2339 41.9222 55.4257 31.8014 44.9082 30.918C34.3907 30.0345 25.0036 38.7109 24.0219 50.3973C23.0403 62.0836 30.8485 72.2044 41.366 73.0879ZM41.3284 73.5363C52.133 74.4439 61.7018 65.5388 62.7007 53.6462C63.6997 41.7537 55.7506 31.3771 44.9459 30.4695C34.1412 29.562 24.5725 38.467 23.5735 50.3596C22.5746 62.2522 30.5237 72.6287 41.3284 73.5363Z" fill="black"/>
<circle cx="75.7109" cy="26.6593" r="2.47599" fill="white"/>
<path d="M75.0127 25.9722C69.2759 21.279 62.4898 20.8171 56.7346 26.2052C56.4037 26.5151 56.3159 27.0044 56.5121 27.4131C61.3254 37.4402 71.7052 43.3339 76.9576 45.2929C77.3482 45.4385 77.7864 45.3383 78.0581 45.0222C82.2869 40.1028 80.7302 30.6496 75.0127 25.9722Z" fill="#F58C12"/>
</g>
<defs>
<clipPath id="clip0_120_198">
<rect width="100" height="100" fill="white"/>
</clipPath>
</defs>
</svg>
