<svg width="110" height="110" viewBox="0 0 110 110" fill="none" xmlns="http://www.w3.org/2000/svg">
<g clip-path="url(#clip0_114_293)">
<circle cx="54.9995" cy="55.0007" r="55" fill="#1BB1F8"/>
<path d="M105.081 77.7697C108.24 70.8315 110 63.1216 110 55.0005C110 52.1012 109.776 49.2542 109.344 46.4761L108.035 46.8526C103.434 48.1763 100.265 52.3856 100.265 57.173L96.8199 58.1155C93.6011 58.9961 91.369 61.9209 91.369 65.258H90.9263C86.5966 65.258 82.5779 67.5074 80.314 71.198L105.081 77.7697Z" fill="white"/>
<path d="M4.99448 77.9325C1.94198 71.2871 0.175198 63.9286 0.0126953 56.1756L1.32515 55.9364C4.79341 55.3041 8.17493 57.4085 9.13945 60.7994L9.19914 61.0093L10.5054 60.9378C13.4581 60.7762 16.0413 62.9061 16.4454 65.8355L18.5211 65.7298C20.8736 65.61 23.0782 66.879 24.1563 68.9734L25.5066 71.5968L4.99448 77.9325Z" fill="white"/>
<path d="M105.566 76.6705C97.1544 96.271 77.6802 110 54.9996 110C32.319 110 12.8448 96.271 4.43359 76.6705C18.6621 71.7288 36.1259 68.8179 54.9996 68.8179C73.8733 68.8179 91.3371 71.7288 105.566 76.6705Z" fill="#058CCC"/>
<ellipse cx="53.8572" cy="62.3593" rx="24.3361" ry="26.2338" transform="rotate(12.2502 53.8572 62.3593)" fill="#F58C12"/>
<ellipse cx="50.6321" cy="61.6597" rx="24.3361" ry="26.2338" transform="rotate(12.2502 50.6321 61.6597)" fill="white"/>
<path d="M69.2462 8.31893C59.9785 6.30667 50.7805 11.9907 48.4348 21.1797L46.3181 29.4717L54.5702 31.5782L57.7297 32.3967L58.6388 29.0306L56.0552 27.1283L57.0146 23.3699C58.1815 18.7988 62.7571 15.9713 67.3674 16.9723C72.1854 18.0184 75.1931 22.831 74.0219 27.6201L70.0047 43.0125C72.4359 45.523 74.3334 48.5745 75.5699 51.9516L82.6234 29.7236C84.9778 20.0963 78.9316 10.4219 69.2462 8.31893Z" fill="#FFB140"/>
<path d="M57.6971 21.557L48.9006 19.647C48.8515 19.7859 48.8041 19.9257 48.7582 20.0664L57.5027 21.965C57.5642 21.8268 57.6291 21.6908 57.6971 21.557Z" fill="black"/>
<path d="M56.7407 24.4448L48.0817 22.5647L47.9728 22.9913L56.6318 24.8714L56.7407 24.4448Z" fill="black"/>
<path d="M54.2798 60.0064C53.8067 62.1855 51.6566 63.5684 49.4776 63.0953C47.2985 62.6221 45.9156 60.4721 46.3887 58.2931C46.8619 56.114 49.0119 54.7311 51.1909 55.2042C53.37 55.6773 54.7529 57.8274 54.2798 60.0064Z" fill="#058CCC"/>
<path d="M50.2673 69.2069L50.9907 63.1199L47.5411 61.9596L43.5188 67.7416L50.2673 69.2069Z" fill="#058CCC"/>
<path d="M47.462 61.9868L49.9161 63.1867L53.9756 57.4035C53.4549 56.3197 52.4576 55.4787 51.1916 55.2038C49.0126 54.7307 46.8625 56.1136 46.3894 58.2927C46.089 59.6764 46.537 61.0484 47.462 61.9868Z" fill="#058CCC"/>
<path d="M50.9894 63.1346C52.5758 62.8735 53.9185 61.6727 54.2803 60.0061C54.516 58.9204 54.291 57.8419 53.7363 56.9745C53.5506 56.901 53.3564 56.8416 53.1549 56.7978C51.155 56.3636 49.1817 57.6328 48.7475 59.6328C48.4682 60.919 48.8935 62.1942 49.7646 63.056L46.1135 68.3046L50.2678 69.2066L50.9894 63.1346Z" fill="#1BB1F8"/>
<ellipse cx="53.9001" cy="96.7412" rx="19.1892" ry="3.64479" fill="black"/>
</g>
<defs>
<clipPath id="clip0_114_293">
<rect width="110" height="110" fill="white"/>
</clipPath>
</defs>
</svg>
