<svg width="110" height="110" viewBox="0 0 110 110" fill="none" xmlns="http://www.w3.org/2000/svg">
<g clip-path="url(#clip0_114_332)">
<circle cx="55" cy="55" r="55" fill="#1BB1F8"/>
<path d="M105.081 77.769C108.24 70.8308 110 63.1208 110 54.9998C110 52.1004 109.776 49.2535 109.344 46.4753L108.035 46.8518C103.434 48.1755 100.265 52.3848 100.265 57.1723L96.8199 58.1148C93.6011 58.9954 91.369 61.9202 91.369 65.2573H90.9263C86.5966 65.2573 82.5779 67.5067 80.314 71.1973L105.081 77.769Z" fill="white"/>
<path d="M4.994 77.9318C1.9415 71.2864 0.17471 63.9279 0.012207 56.1749L1.32466 55.9356C4.79292 55.3034 8.17444 57.4078 9.13896 60.7987L9.19866 61.0085L10.5049 60.937C13.4576 60.7754 16.0408 62.9054 16.4449 65.8348L18.5206 65.7291C20.8731 65.6093 23.0777 66.8782 24.1558 68.9726L25.5062 71.596L4.994 77.9318Z" fill="white"/>
<path d="M105.566 76.6698C97.1544 96.2703 77.6802 109.999 54.9996 109.999C32.319 109.999 12.8448 96.2703 4.43359 76.6698C18.6621 71.7281 36.1259 68.8171 54.9996 68.8171C73.8733 68.8171 91.3371 71.7281 105.566 76.6698Z" fill="#058CCC"/>
<ellipse cx="35.6117" cy="81.7804" rx="16.6229" ry="3.245" fill="black"/>
<ellipse cx="80.042" cy="90.5689" rx="10.1777" ry="1.98682" fill="black"/>
<path d="M67.6329 81.1057L68.1908 81.3847L68.5359 81.0052L67.1327 80.1885C67.0913 80.5688 67.2908 80.9347 67.6329 81.1057Z" fill="#F58C12"/>
<path d="M99.0134 61.2922C99.0134 70.6474 91.4295 78.2313 82.0743 78.2313C72.7191 78.2313 65.1353 70.6474 65.1353 61.2922C65.1353 51.937 72.7191 44.3531 82.0743 44.3531C91.4295 44.3531 99.0134 51.937 99.0134 61.2922Z" fill="#F58C12"/>
<path d="M68.2729 80.6189C71.3393 79.9076 73.6358 77.3056 74.4496 75.9924L80.4849 77.9237C73.4727 82.4755 69.6211 82.2704 68.0649 81.3165C67.7441 81.1198 67.9063 80.704 68.2729 80.6189Z" fill="#F58C12"/>
<path d="M98.2434 60.5221C98.2434 69.8773 90.6595 77.4612 81.3043 77.4612C71.9491 77.4612 64.3652 69.8773 64.3652 60.5221C64.3652 51.1669 71.9491 43.583 81.3043 43.583C90.6595 43.583 98.2434 51.1669 98.2434 60.5221Z" fill="#FFB140"/>
<path d="M67.5029 79.8488C70.5693 79.1375 72.8658 76.5355 73.6795 75.2223L79.7149 77.1536C72.7027 81.7054 68.8511 81.5003 67.2949 80.5463C66.9741 80.3496 67.1363 79.9338 67.5029 79.8488Z" fill="#FFB140"/>
<circle cx="74.0171" cy="61.0465" r="2.0625" fill="white"/>
<circle cx="81.4419" cy="61.0459" r="2.0625" fill="white"/>
<circle cx="88.8662" cy="61.0465" r="2.0625" fill="white"/>
<path d="M60.2656 59.7447L60.24 59.7495L60.1872 59.0741L61.0766 58.5211L61.0887 58.6159C61.1568 59.1508 60.7957 59.646 60.2656 59.7447Z" fill="#F58C12"/>
<path d="M10.9868 41.0212C10.9868 34.295 16.4395 28.8423 23.1657 28.8423H52.0472C58.7735 28.8423 64.2261 34.295 64.2261 41.0212C64.2261 47.7474 58.7735 53.2001 52.0472 53.2001H23.1657C16.4395 53.2001 10.9868 47.7474 10.9868 41.0212Z" fill="#F58C12"/>
<path d="M60.325 58.8769C57.2449 57.4365 55.0411 54.3576 54.2411 52.7909H45.5964C50.2854 59.0694 56.5457 60.1044 60.2536 59.7468C60.7075 59.703 60.738 59.07 60.325 58.8769Z" fill="#F58C12"/>
<path d="M11.4541 40.3061C11.4541 33.5799 16.9068 28.1272 23.633 28.1272H52.5145C59.2407 28.1272 64.6934 33.5799 64.6934 40.3061C64.6934 47.0324 59.2407 52.4851 52.5145 52.4851H23.633C16.9068 52.4851 11.4541 47.0324 11.4541 40.3061Z" fill="#FFB140"/>
<path d="M60.7922 58.1618C57.7122 56.7214 55.5084 53.6425 54.7084 52.0758H46.0637C50.7527 58.3543 57.013 59.3893 60.7209 59.0317C61.1747 58.9879 61.2053 58.3549 60.7922 58.1618Z" fill="#FFB140"/>
<circle cx="30.6484" cy="40.6023" r="2.0625" fill="white"/>
<circle cx="38.0742" cy="38.9526" r="2.0625" fill="white"/>
<circle cx="45.499" cy="40.6029" r="2.0625" fill="white"/>
</g>
<defs>
<clipPath id="clip0_114_332">
<rect width="110" height="110" fill="white"/>
</clipPath>
</defs>
</svg>
