<svg width="110" height="110" viewBox="0 0 110 110" fill="none" xmlns="http://www.w3.org/2000/svg">
<g clip-path="url(#clip0_114_356)">
<circle cx="55" cy="55" r="55" fill="#1BB1F8"/>
<path d="M105.566 76.6698C97.1548 96.2703 77.6807 109.999 55.0001 109.999C32.3194 109.999 12.8453 96.2703 4.43408 76.6698C18.6626 71.7281 36.1264 68.8171 55.0001 68.8171C73.8737 68.8171 91.3375 71.7281 105.566 76.6698Z" fill="#058CCC"/>
<path d="M97.419 90.0122C90.4418 98.4558 80.9921 104.781 70.1787 107.879L74.9746 90.0122H97.419Z" fill="black"/>
<path d="M105.081 77.769C108.24 70.8308 110 63.1208 110 54.9998C110 52.1004 109.776 49.2535 109.344 46.4753L108.035 46.8518C103.434 48.1755 100.265 52.3848 100.265 57.1723L96.8199 58.1148C93.6011 58.9954 91.369 61.9202 91.369 65.2573H90.9263C86.5966 65.2573 82.5779 67.5067 80.314 71.1973L105.081 77.769Z" fill="white"/>
<path d="M4.994 77.9318C1.9415 71.2864 0.17471 63.9279 0.012207 56.1749L1.32466 55.9356C4.79292 55.3034 8.17444 57.4078 9.13896 60.7987L9.19866 61.0085L10.5049 60.937C13.4576 60.7754 16.0408 62.9054 16.4449 65.8348L18.5206 65.7291C20.8731 65.6093 23.0777 66.8782 24.1558 68.9726L25.5062 71.596L4.994 77.9318Z" fill="white"/>
<path d="M65.6841 108.963L94.0643 24.3787L94.5221 24.433L96.2414 29.138L73.506 106.809C70.979 107.712 68.3665 108.435 65.6841 108.963Z" fill="#F58C12"/>
<path d="M69.7679 107.995C65.0687 109.302 60.1162 110 55.0006 110C37.1822 110 21.3428 101.527 11.292 88.3899L35.9156 6.66895L94.5318 24.4202L69.7679 107.995Z" fill="#FFB140"/>
<path d="M13.5137 91.1105L37.6473 10.8677L90.4753 26.8678L69.2466 98.5537L69.2407 98.5737L48.0196 109.561C34.3001 107.824 22.1566 101.032 13.5137 91.1105Z" fill="white"/>
<path d="M46.377 109.328L50.6365 93.0979L69.2502 98.5437L48.0518 109.566C47.4908 109.495 46.9325 109.416 46.377 109.328Z" fill="#F0F0F0"/>
<path d="M73.4317 41.555C68.9122 35.558 61.119 37.4628 57.7873 39.1649L50.7279 64.2988C70.5447 58.0408 77.8456 47.4806 73.4317 41.555Z" fill="#F58C12"/>
<path d="M43.1892 33.0592C50.1705 30.293 55.8317 35.9775 57.7897 39.1655L50.7279 64.2988C37.0689 48.6367 36.3353 35.8193 43.1892 33.0592Z" fill="#F58C12"/>
<path d="M38.4731 48.2581L47.7414 50.6704L51.4234 43.9414L53.4548 55.7489L57.5176 47.3694L58.5333 52.4479L63.4848 53.5906" stroke="white" stroke-width="1.1" stroke-linecap="round" stroke-linejoin="round"/>
<path fill-rule="evenodd" clip-rule="evenodd" d="M26.0229 62.0581C26.0586 61.942 26.1816 61.8767 26.2978 61.9123L71.7854 75.8672C71.9016 75.9029 71.9669 76.0259 71.9312 76.1421C71.8956 76.2582 71.7725 76.3235 71.6564 76.2879L26.1687 62.333C26.0526 62.2973 25.9873 62.1743 26.0229 62.0581Z" fill="black"/>
<path fill-rule="evenodd" clip-rule="evenodd" d="M28.1467 66.155C28.1819 66.0387 28.3047 65.9729 28.421 66.0082L66.3984 77.5069C66.5147 77.5421 66.5804 77.6649 66.5452 77.7812C66.51 77.8975 66.3872 77.9632 66.2709 77.928L28.2935 66.4293C28.1772 66.3941 28.1115 66.2713 28.1467 66.155Z" fill="black"/>
<path opacity="0.3" fill-rule="evenodd" clip-rule="evenodd" d="M26.5652 75.4383C26.6004 75.322 26.7232 75.2563 26.8395 75.2915L64.8169 86.7902C64.9332 86.8254 64.9989 86.9483 64.9637 87.0645C64.9285 87.1808 64.8057 87.2466 64.6894 87.2113L26.712 75.7126C26.5957 75.6774 26.53 75.5546 26.5652 75.4383Z" fill="black"/>
<path opacity="0.3" fill-rule="evenodd" clip-rule="evenodd" d="M25.4612 78.3917C25.4964 78.2754 25.6192 78.2096 25.7355 78.2448L63.7129 89.7436C63.8292 89.7788 63.8949 89.9016 63.8597 90.0179C63.8245 90.1342 63.7017 90.1999 63.5854 90.1647L25.608 78.666C25.4917 78.6308 25.4259 78.5079 25.4612 78.3917Z" fill="black"/>
<path opacity="0.3" fill-rule="evenodd" clip-rule="evenodd" d="M26.5188 81.7673C26.5541 81.651 26.6769 81.5853 26.7932 81.6206L58.441 91.2204C58.5573 91.2557 58.623 91.3786 58.5877 91.4948C58.5524 91.6111 58.4296 91.6768 58.3133 91.6415L26.6655 82.0417C26.5492 82.0064 26.4835 81.8836 26.5188 81.7673Z" fill="black"/>
<path d="M49.5391 16.4376L49.4703 16.5451C48.9544 17.3527 49.3625 18.4292 50.2842 18.6917L49.5391 16.4376Z" fill="#202020"/>
<path d="M81.1669 18.9537L81.0739 19.1444L80.2726 16.9109L80.4037 16.964C81.1865 17.281 81.5369 18.1946 81.1669 18.9537Z" fill="#202020"/>
<path d="M75.9963 26.0895L50.4015 18.7316C49.7844 18.5542 49.5257 17.8218 49.8944 17.2961L54.0523 11.3671C54.2773 11.0463 54.6785 10.8998 55.0572 11.0001L80.5199 17.7448C81.1258 17.9053 81.4053 18.6049 81.0768 19.1387L77.0509 25.6809C76.8309 26.0384 76.3997 26.2055 75.9963 26.0895Z" fill="#202020"/>
<path d="M70.1145 14.706C70.1851 17.025 68.3623 18.9622 66.0432 19.0327C63.7242 19.1033 61.787 17.2805 61.7165 14.9615C61.6459 12.6424 63.4687 10.7053 65.7877 10.6347C68.1068 10.5642 70.0439 12.3869 70.1145 14.706Z" fill="#202020"/>
<path d="M75.6397 25.2199L50.0449 17.862C49.4278 17.6846 49.1691 16.9523 49.5377 16.4266L53.6957 10.4975C53.9207 10.1767 54.3218 10.0302 54.7006 10.1306L80.1633 16.8753C80.7692 17.0358 81.0487 17.7353 80.7202 18.2691L76.6943 24.8114C76.4743 25.1688 76.0431 25.3359 75.6397 25.2199Z" fill="#393838"/>
<path d="M69.7579 13.8364C69.8284 16.1555 68.0057 18.0926 65.6866 18.1632C63.3676 18.2337 61.4304 16.411 61.3599 14.0919C61.2893 11.7729 63.1121 9.83573 65.4311 9.76517C67.7502 9.69462 69.6873 11.5174 69.7579 13.8364Z" fill="#393838"/>
<circle cx="66.1332" cy="11.9677" r="1.1" fill="#835DFE"/>
</g>
<defs>
<clipPath id="clip0_114_356">
<rect width="110" height="110" fill="white"/>
</clipPath>
</defs>
</svg>
