<svg width="110" height="110" viewBox="0 0 110 110" fill="none" xmlns="http://www.w3.org/2000/svg">
<g clip-path="url(#clip0_114_236)">
<circle cx="55" cy="55" r="55" fill="#1BB1F8"/>
<path d="M105.081 77.7695C108.24 70.8313 110 63.1213 110 55.0003C110 52.1009 109.776 49.254 109.344 46.4758L108.035 46.8523C103.434 48.176 100.265 52.3853 100.265 57.1728L96.8199 58.1153C93.6011 58.9959 91.369 61.9207 91.369 65.2578H90.9263C86.5966 65.2578 82.5779 67.5072 80.314 71.1978L105.081 77.7695Z" fill="white"/>
<path d="M4.99424 77.9323C1.94174 71.2869 0.174954 63.9284 0.0124512 56.1754L1.3249 55.9361C4.79316 55.3039 8.17468 57.4083 9.13921 60.7992L9.1989 61.009L10.5051 60.9375C13.4579 60.7759 16.0411 62.9059 16.4451 65.8353L18.5208 65.7296C20.8733 65.6098 23.078 66.8787 24.156 68.9731L25.5064 71.5965L4.99424 77.9323Z" fill="white"/>
<path d="M105.566 76.6698C97.1546 96.2703 77.6804 109.999 54.9998 109.999C32.3192 109.999 12.845 96.2703 4.43384 76.6698C18.6623 71.7281 36.1261 68.8171 54.9998 68.8171C73.8735 68.8171 91.3373 71.7281 105.566 76.6698Z" fill="#058CCC"/>
<ellipse cx="54.9998" cy="99.0823" rx="18.3975" ry="3.245" fill="black"/>
<path d="M88.9437 55.3649C84.3879 79.0181 66.2915 95.4186 48.8573 92.0606C31.4232 88.7027 21.9753 69.7975 26.5311 46.1443C31.0869 22.4911 50.3941 6.66299 66.6067 9.06842C86.4554 12.0133 93.4995 31.7117 88.9437 55.3649Z" fill="#F58C12"/>
<path d="M60.2852 7.86486L68.9939 9.54222L49.6945 92.2218L42.471 90.8305L60.2852 7.86486Z" fill="#F58C12"/>
<path d="M82.7327 54.1687C78.1769 77.8219 60.0805 94.2224 42.6464 90.8645C25.2123 87.5065 15.7644 68.6013 20.3202 44.9481C24.876 21.295 44.1832 5.46683 60.3957 7.87225C80.2445 10.8172 87.2885 30.5156 82.7327 54.1687Z" fill="#FFB140"/>
<path d="M80.3891 53.6855C76.1603 75.6406 59.3597 90.8631 43.173 87.7454C26.9863 84.6277 18.2137 67.0791 22.4425 45.124C26.6712 23.1689 44.5961 8.47772 59.6485 10.7112C78.077 13.4456 84.6178 31.7303 80.3891 53.6855Z" fill="white"/>
<path d="M41.2987 87.3112C26.3168 83.2408 18.3803 66.2157 22.4427 45.1238C24.7729 33.0261 31.2615 23.1338 39.1366 17.0634L50.1522 48.1875L41.2987 87.3112Z" fill="#F58C12"/>
<path fill-rule="evenodd" clip-rule="evenodd" d="M56.3075 25.1054C56.5275 25.1644 56.6581 25.3906 56.5991 25.6106L51.0836 46.1867C51.0246 46.4068 50.7984 46.5373 50.5783 46.4783C50.3583 46.4194 50.2277 46.1932 50.2867 45.9731L55.8023 25.397C55.8612 25.177 56.0875 25.0464 56.3075 25.1054Z" fill="black"/>
<path fill-rule="evenodd" clip-rule="evenodd" d="M50.6057 47.706C50.7386 47.8911 50.6963 48.1488 50.5113 48.2817L43.1836 54.9952C42.9986 55.1281 42.7409 55.0858 42.6079 54.9008C42.475 54.7158 42.5173 54.458 42.7023 54.3251L50.03 47.6117C50.215 47.4788 50.4727 47.521 50.6057 47.706Z" fill="black"/>
<ellipse cx="50.0822" cy="48.1176" rx="2.04875" ry="2.43375" transform="rotate(10.9021 50.0822 48.1176)" fill="black"/>
<path fill-rule="evenodd" clip-rule="evenodd" d="M23.9586 46.489C24.0017 46.2653 24.218 46.1189 24.4417 46.162L27.034 46.6613C27.2577 46.7044 27.4042 46.9207 27.3611 47.1444C27.318 47.3681 27.1017 47.5145 26.878 47.4714L24.2856 46.9721C24.0619 46.929 23.9155 46.7127 23.9586 46.489Z" fill="black"/>
<path fill-rule="evenodd" clip-rule="evenodd" d="M73.4792 53.2206C73.5124 52.9952 73.722 52.8394 73.9474 52.8726L76.5593 53.2569C76.7847 53.2901 76.9405 53.4997 76.9073 53.7251C76.8742 53.9505 76.6646 54.1063 76.4392 54.0731L73.8273 53.6888C73.6019 53.6556 73.4461 53.446 73.4792 53.2206Z" fill="black"/>
<path fill-rule="evenodd" clip-rule="evenodd" d="M42.4754 80.575C42.698 80.6237 42.839 80.8435 42.7904 81.0661L42.2268 83.6452C42.1781 83.8678 41.9583 84.0088 41.7357 83.9602C41.5132 83.9115 41.3722 83.6917 41.4208 83.4691L41.9844 80.89C42.033 80.6674 42.2529 80.5264 42.4754 80.575Z" fill="black"/>
<path fill-rule="evenodd" clip-rule="evenodd" d="M59.441 12.5579C59.6636 12.6066 59.8046 12.8264 59.7559 13.049L59.1924 15.6281C59.1437 15.8507 58.9239 15.9917 58.7013 15.9431C58.4787 15.8944 58.3377 15.6746 58.3864 15.452L58.95 12.8729C58.9986 12.6503 59.2184 12.5093 59.441 12.5579Z" fill="black"/>
<path d="M36.2019 66.1024C36.3428 66.0001 36.2479 65.783 36.0743 65.7937C35.4146 65.8341 34.7372 65.7693 34.064 65.5867C30.7465 64.6868 28.7871 61.2666 29.6875 57.9474C29.9623 56.9343 30.4718 56.0477 31.1415 55.3304C31.2603 55.2031 31.1532 54.992 30.9848 55.0358C28.8936 55.5799 27.1443 57.1994 26.5378 59.4351C25.6374 62.7543 27.5969 66.1745 30.9143 67.0744C32.8056 67.5875 34.73 67.1706 36.2019 66.1024Z" fill="white"/>
<ellipse cx="67.7228" cy="36.7146" rx="3.85" ry="4.84" transform="rotate(10.9021 67.7228 36.7146)" fill="#F58C12"/>
<path fill-rule="evenodd" clip-rule="evenodd" d="M73.9408 31.8857C74.0422 32.0184 74.0169 32.2083 73.8842 32.3097L72.2749 33.5401C72.1422 33.6416 71.9524 33.6162 71.8509 33.4835C71.7494 33.3508 71.7748 33.1609 71.9075 33.0595L73.5167 31.8291C73.6495 31.7277 73.8393 31.753 73.9408 31.8857Z" fill="#F58C12"/>
<path fill-rule="evenodd" clip-rule="evenodd" d="M74.5965 38.4216C74.5628 38.5852 74.4028 38.6905 74.2392 38.6568L72.2551 38.2484C72.0915 38.2147 71.9861 38.0547 72.0198 37.8911C72.0535 37.7275 72.2135 37.6221 72.3771 37.6558L74.3612 38.0643C74.5248 38.098 74.6302 38.2579 74.5965 38.4216Z" fill="#F58C12"/>
<path fill-rule="evenodd" clip-rule="evenodd" d="M63.1231 35.8826C63.0783 36.0435 62.9116 36.1377 62.7506 36.093L60.7989 35.5506C60.6379 35.5059 60.5437 35.3391 60.5884 35.1782C60.6332 35.0172 60.7999 34.923 60.9609 34.9677L62.9126 35.5101C63.0736 35.5548 63.1678 35.7216 63.1231 35.8826Z" fill="#F58C12"/>
<path fill-rule="evenodd" clip-rule="evenodd" d="M61.5628 41.9844C61.4567 41.8553 61.4754 41.6647 61.6045 41.5586L63.1696 40.2726C63.2987 40.1666 63.4893 40.1852 63.5954 40.3143C63.7014 40.4434 63.6828 40.634 63.5537 40.7401L61.9885 42.0261C61.8594 42.1321 61.6688 42.1135 61.5628 41.9844Z" fill="#F58C12"/>
<path fill-rule="evenodd" clip-rule="evenodd" d="M70.9197 43.871C71.0661 43.7906 71.1196 43.6066 71.0391 43.4602L70.0636 41.6849C69.9832 41.5385 69.7993 41.485 69.6528 41.5655C69.5064 41.6459 69.4529 41.8298 69.5334 41.9762L70.5089 43.7516C70.5894 43.898 70.7733 43.9515 70.9197 43.871Z" fill="#F58C12"/>
<path fill-rule="evenodd" clip-rule="evenodd" d="M65.5496 31.9147C65.696 31.8343 65.7495 31.6503 65.669 31.5039L64.6935 29.7286C64.6131 29.5822 64.4291 29.5287 64.2827 29.6092C64.1363 29.6896 64.0828 29.8735 64.1633 30.0199L65.1388 31.7953C65.2192 31.9417 65.4032 31.9952 65.5496 31.9147Z" fill="#F58C12"/>
<path fill-rule="evenodd" clip-rule="evenodd" d="M68.9817 31.4145C69.1436 31.4558 69.3083 31.3579 69.3495 31.196L69.8494 29.233C69.8906 29.0711 69.7928 28.9064 69.6309 28.8652C69.469 28.824 69.3043 28.9218 69.2631 29.0837L68.7632 31.0468C68.722 31.2087 68.8198 31.3733 68.9817 31.4145Z" fill="#F58C12"/>
<path fill-rule="evenodd" clip-rule="evenodd" d="M65.5417 45.009C65.7057 45.0412 65.8647 44.9344 65.8969 44.7705L66.2875 42.7828C66.3197 42.6189 66.2129 42.4599 66.049 42.4276C65.885 42.3954 65.726 42.5022 65.6938 42.6661L65.3032 44.6538C65.271 44.8178 65.3778 44.9768 65.5417 45.009Z" fill="#F58C12"/>
</g>
<defs>
<clipPath id="clip0_114_236">
<rect width="110" height="110" fill="white"/>
</clipPath>
</defs>
</svg>
