<svg width="100" height="100" viewBox="0 0 100 100" fill="none" xmlns="http://www.w3.org/2000/svg">
<circle cx="50" cy="50" r="50" fill="#1BB1F8"/>
<mask id="mask0_113_217" style="mask-type:alpha" maskUnits="userSpaceOnUse" x="0" y="0" width="100" height="100">
<circle cx="50" cy="50" r="50" fill="#D9D9D9"/>
</mask>
<g mask="url(#mask0_113_217)">
<path opacity="0.05" fill-rule="evenodd" clip-rule="evenodd" d="M9.99985 -6.56006C10.3312 -6.56006 10.5998 -6.29143 10.5998 -5.96006V4.87053H19.3998V-5.96006C19.3998 -6.29143 19.6685 -6.56006 19.9998 -6.56006C20.3312 -6.56006 20.5998 -6.29143 20.5998 -5.96006V4.87053H29.3998V-5.96006C29.3998 -6.29143 29.6685 -6.56006 29.9998 -6.56006C30.3312 -6.56006 30.5998 -6.29143 30.5998 -5.96006V4.87053H39.3998V-5.96006C39.3998 -6.29143 39.6685 -6.56006 39.9998 -6.56006C40.3312 -6.56006 40.5998 -6.29143 40.5998 -5.96006V4.87053H49.3998V-5.96006C49.3998 -6.29143 49.6685 -6.56006 49.9998 -6.56006C50.3312 -6.56006 50.5998 -6.29143 50.5998 -5.96006V4.87053H59.3998V-5.96006C59.3998 -6.29143 59.6685 -6.56006 59.9998 -6.56006C60.3312 -6.56006 60.5998 -6.29143 60.5998 -5.96006V4.87053H69.3998V-5.96006C69.3998 -6.29143 69.6684 -6.56006 69.9998 -6.56006C70.3312 -6.56006 70.5998 -6.29143 70.5998 -5.96006V4.87053H79.3998V-5.96006C79.3998 -6.29143 79.6684 -6.56006 79.9998 -6.56006C80.3312 -6.56006 80.5998 -6.29143 80.5998 -5.96006V4.87053H89.3998V-5.96006C89.3998 -6.29143 89.6684 -6.56006 89.9998 -6.56006C90.3312 -6.56006 90.5998 -6.29143 90.5998 -5.96006V4.87053H101.43C101.762 4.87053 102.03 5.13916 102.03 5.47053C102.03 5.8019 101.762 6.07053 101.43 6.07053H90.5998V14.8705H101.43C101.762 14.8705 102.03 15.1392 102.03 15.4705C102.03 15.8019 101.762 16.0705 101.43 16.0705H90.5998V24.8705H101.43C101.762 24.8705 102.03 25.1392 102.03 25.4705C102.03 25.8019 101.762 26.0705 101.43 26.0705H90.5998V34.8705H101.43C101.762 34.8705 102.03 35.1391 102.03 35.4705C102.03 35.8018 101.762 36.0705 101.43 36.0705H90.5998V44.8705H101.43C101.762 44.8705 102.03 45.1391 102.03 45.4705C102.03 45.8019 101.762 46.0705 101.43 46.0705H90.5998V54.8705H101.43C101.762 54.8705 102.03 55.1391 102.03 55.4705C102.03 55.8019 101.762 56.0705 101.43 56.0705H90.5998V64.8705H101.43C101.762 64.8705 102.03 65.1391 102.03 65.4705C102.03 65.8019 101.762 66.0705 101.43 66.0705H90.5998V74.8705H101.43C101.762 74.8705 102.03 75.1391 102.03 75.4705C102.03 75.8019 101.762 76.0705 101.43 76.0705H90.5998V84.8705H101.43C101.762 84.8705 102.03 85.1391 102.03 85.4705C102.03 85.8019 101.762 86.0705 101.43 86.0705H90.5998V96.9011C90.5998 97.2324 90.3312 97.5011 89.9998 97.5011C89.6684 97.5011 89.3998 97.2324 89.3998 96.9011V86.0705H80.5998V96.9011C80.5998 97.2324 80.3312 97.5011 79.9998 97.5011C79.6684 97.5011 79.3998 97.2324 79.3998 96.9011V86.0705H70.5998V96.9011C70.5998 97.2324 70.3312 97.5011 69.9998 97.5011C69.6684 97.5011 69.3998 97.2324 69.3998 96.9011V86.0705H60.5998V96.9011C60.5998 97.2324 60.3312 97.5011 59.9998 97.5011C59.6685 97.5011 59.3998 97.2324 59.3998 96.9011V86.0705H50.5998V96.9011C50.5998 97.2324 50.3312 97.5011 49.9998 97.5011C49.6685 97.5011 49.3998 97.2324 49.3998 96.9011V86.0705H40.5998V96.9011C40.5998 97.2324 40.3312 97.5011 39.9998 97.5011C39.6685 97.5011 39.3998 97.2324 39.3998 96.9011V86.0705H30.5998V96.9011C30.5998 97.2324 30.3312 97.5011 29.9998 97.5011C29.6685 97.5011 29.3998 97.2324 29.3998 96.9011V86.0705H20.5998V96.9011C20.5998 97.2324 20.3312 97.5011 19.9998 97.5011C19.6685 97.5011 19.3998 97.2324 19.3998 96.9011V86.0705H10.5998V96.9011C10.5998 97.2324 10.3312 97.5011 9.99985 97.5011C9.66848 97.5011 9.39985 97.2324 9.39985 96.9011V86.0705H-1.43076C-1.76213 86.0705 -2.03076 85.8019 -2.03076 85.4705C-2.03076 85.1391 -1.76213 84.8705 -1.43076 84.8705H9.39985V76.0705H-1.43076C-1.76213 76.0705 -2.03076 75.8019 -2.03076 75.4705C-2.03076 75.1391 -1.76213 74.8705 -1.43076 74.8705H9.39985V66.0705H-1.43076C-1.76213 66.0705 -2.03076 65.8019 -2.03076 65.4705C-2.03076 65.1391 -1.76213 64.8705 -1.43076 64.8705H9.39985V56.0705H-1.43076C-1.76213 56.0705 -2.03076 55.8019 -2.03076 55.4705C-2.03076 55.1391 -1.76213 54.8705 -1.43076 54.8705H9.39985V46.0705H-1.43076C-1.76213 46.0705 -2.03076 45.8019 -2.03076 45.4705C-2.03076 45.1391 -1.76213 44.8705 -1.43076 44.8705H9.39985V36.0705H-1.43076C-1.76213 36.0705 -2.03076 35.8018 -2.03076 35.4705C-2.03076 35.1391 -1.76213 34.8705 -1.43076 34.8705H9.39985V26.0705H-1.43076C-1.76213 26.0705 -2.03076 25.8019 -2.03076 25.4705C-2.03076 25.1392 -1.76213 24.8705 -1.43076 24.8705H9.39985V16.0705H-1.43076C-1.76213 16.0705 -2.03076 15.8019 -2.03076 15.4705C-2.03076 15.1392 -1.76213 14.8705 -1.43076 14.8705H9.39985V6.07053H-1.43076C-1.76213 6.07053 -2.03076 5.8019 -2.03076 5.47053C-2.03076 5.13916 -1.76213 4.87053 -1.43076 4.87053H9.39985V-5.96006C9.39985 -6.29143 9.66848 -6.56006 9.99985 -6.56006ZM10.5998 6.07053V14.8705H19.3998V6.07053H10.5998ZM20.5998 6.07053V14.8705H29.3998V6.07053H20.5998ZM30.5998 6.07053V14.8705H39.3998V6.07053H30.5998ZM40.5998 6.07053V14.8705H49.3998V6.07053H40.5998ZM50.5998 6.07053V14.8705H59.3998V6.07053H50.5998ZM60.5998 6.07053V14.8705H69.3998V6.07053H60.5998ZM70.5998 6.07053V14.8705H79.3998V6.07053H70.5998ZM80.5998 6.07053V14.8705H89.3998V6.07053H80.5998ZM89.3998 16.0705H80.5998V24.8705H89.3998V16.0705ZM89.3998 26.0705H80.5998V34.8705H89.3998V26.0705ZM89.3998 36.0705H80.5998V44.8705H89.3998V36.0705ZM89.3998 46.0705H80.5998V54.8705H89.3998V46.0705ZM89.3998 56.0705H80.5998V64.8705H89.3998V56.0705ZM89.3998 66.0705H80.5998V74.8705H89.3998V66.0705ZM89.3998 76.0705H80.5998V84.8705H89.3998V76.0705ZM79.3998 84.8705V76.0705H70.5998V84.8705H79.3998ZM69.3998 84.8705V76.0705H60.5998V84.8705H69.3998ZM59.3998 84.8705V76.0705H50.5998V84.8705H59.3998ZM49.3998 84.8705V76.0705H40.5998V84.8705H49.3998ZM39.3998 84.8705V76.0705H30.5998V84.8705H39.3998ZM29.3998 84.8705V76.0705H20.5998V84.8705H29.3998ZM19.3998 84.8705V76.0705H10.5998V84.8705H19.3998ZM10.5998 74.8705H19.3998V66.0705H10.5998V74.8705ZM10.5998 64.8705H19.3998V56.0705H10.5998V64.8705ZM10.5998 54.8705H19.3998V46.0705H10.5998V54.8705ZM10.5998 44.8705H19.3998V36.0705H10.5998V44.8705ZM10.5998 34.8705H19.3998V26.0705H10.5998V34.8705ZM10.5998 24.8705H19.3998V16.0705H10.5998V24.8705ZM20.5998 16.0705V24.8705H29.3998V16.0705H20.5998ZM30.5998 16.0705V24.8705H39.3998V16.0705H30.5998ZM40.5998 16.0705V24.8705H49.3998V16.0705H40.5998ZM50.5998 16.0705V24.8705H59.3998V16.0705H50.5998ZM60.5998 16.0705V24.8705H69.3998V16.0705H60.5998ZM70.5998 16.0705V24.8705H79.3998V16.0705H70.5998ZM79.3998 26.0705H70.5998V34.8705H79.3998V26.0705ZM79.3998 36.0705H70.5998V44.8705H79.3998V36.0705ZM79.3998 46.0705H70.5998V54.8705H79.3998V46.0705ZM79.3998 56.0705H70.5998V64.8705H79.3998V56.0705ZM79.3998 66.0705H70.5998V74.8705H79.3998V66.0705ZM69.3998 74.8705V66.0705H60.5998V74.8705H69.3998ZM59.3998 74.8705V66.0705H50.5998V74.8705H59.3998ZM49.3998 74.8705V66.0705H40.5998V74.8705H49.3998ZM39.3998 74.8705V66.0705H30.5998V74.8705H39.3998ZM29.3998 74.8705V66.0705H20.5998V74.8705H29.3998ZM20.5998 64.8705H29.3998V56.0705H20.5998V64.8705ZM20.5998 54.8705H29.3998V46.0705H20.5998V54.8705ZM20.5998 44.8705H29.3998V36.0705H20.5998V44.8705ZM20.5998 34.8705H29.3998V26.0705H20.5998V34.8705ZM30.5998 26.0705V34.8705H39.3998V26.0705H30.5998ZM40.5998 26.0705V34.8705H49.3998V26.0705H40.5998ZM50.5998 26.0705V34.8705H59.3998V26.0705H50.5998ZM60.5998 26.0705V34.8705H69.3998V26.0705H60.5998ZM69.3998 36.0705H60.5998V44.8705H69.3998V36.0705ZM69.3998 46.0705H60.5998V54.8705H69.3998V46.0705ZM69.3998 56.0705H60.5998V64.8705H69.3998V56.0705ZM59.3998 64.8705V56.0705H50.5998V64.8705H59.3998ZM49.3998 64.8705V56.0705H40.5998V64.8705H49.3998ZM39.3998 64.8705V56.0705H30.5998V64.8705H39.3998ZM30.5998 54.8705H39.3998V46.0705H30.5998V54.8705ZM30.5998 44.8705H39.3998V36.0705H30.5998V44.8705ZM40.5998 36.0705V44.8705H49.3998V36.0705H40.5998ZM50.5998 36.0705V44.8705H59.3998V36.0705H50.5998ZM59.3998 46.0705H50.5998V54.8705H59.3998V46.0705ZM49.3998 54.8705V46.0705H40.5998V54.8705H49.3998Z" fill="black"/>
<path fill-rule="evenodd" clip-rule="evenodd" d="M45.3853 20.8561L34.4304 68.6597C34.1063 70.0737 32.1099 70.122 31.7178 68.7253L28.6421 57.7679L25.3095 69.6401C25.1399 70.2442 24.5891 70.6617 23.9616 70.6617H20.4613L18.548 75.1261C18.0438 76.3025 16.3558 76.2414 15.9379 75.0317L11.8184 63.1068L8.85367 69.8268C8.62979 70.3343 8.12743 70.6617 7.57278 70.6617H-1.69443C-2.30195 70.6617 -2.79443 70.1692 -2.79443 69.5617C-2.79443 68.9542 -2.30195 68.4617 -1.69443 68.4617H7.05133L10.6282 60.3542C11.1418 59.1899 12.8168 59.2593 13.2323 60.4621L17.3413 72.3566L18.6469 69.3102C18.8676 68.7955 19.3737 68.4617 19.9337 68.4617H23.3552L27.2942 54.4294C27.6765 53.0672 29.6076 53.0672 29.99 54.4294L32.9873 65.1076L43.9885 17.1025C44.3175 15.6667 46.3558 15.6477 46.7117 17.077L62.3391 79.8474L67.02 69.4219C67.3654 68.6525 68.3076 68.3609 69.0272 68.8007L72.6907 71.0395L79.946 55.278C80.4647 54.1511 82.0844 54.2058 82.526 55.365L86.455 65.6785H101.839C102.447 65.6785 102.939 66.171 102.939 66.7785C102.939 67.3861 102.447 67.8785 101.839 67.8785H85.9037C85.3227 67.8785 84.8022 67.5198 84.5954 66.9769L81.1481 57.9279L74.313 72.7767C73.9625 73.5379 73.0263 73.8229 72.3112 73.3859L68.655 71.1515L63.3988 82.8585C62.8542 84.0714 61.0843 83.9134 60.7631 82.6233L45.3853 20.8561Z" fill="white"/>
<path d="M70.5355 72.9599C80.248 63.7724 93.322 61.3297 98.6449 61.2568C99.2217 68.7489 98.5134 85.5724 91.0655 92.9295C83.6176 100.287 60.8653 101.369 50.4202 100.99C38.7039 95.7255 32.1308 90.4363 29.2832 87.3458C28.2985 86.277 27.8109 84.8765 27.8068 83.4233C27.7609 67.2482 42.1177 38.204 49.2627 25.3064L58.972 11.5779C59.8872 10.2838 61.1084 9.23639 62.5267 8.52892C63.6488 7.96921 64.9615 7.93667 66.1099 8.44009L66.6636 8.68281C66.7059 8.70137 66.7538 8.70267 66.7971 8.68644C67.5824 8.39195 68.4645 8.52966 69.1226 9.04948L69.7765 9.56594C69.8045 9.58805 69.8453 9.58213 69.8659 9.55297C69.8757 9.53908 69.8902 9.52924 69.9069 9.5259C70.233 9.4604 70.6791 9.51495 70.9954 9.73661C71.2321 9.90237 71.3296 9.72215 71.5079 9.94944L74.7273 13.9291L75.4902 15.6781H77.6781C77.9803 16.3495 78.4941 17.9257 78.1314 18.8592L77.6781 20.0262C76.3727 23.3868 73.7005 26.0342 70.3278 27.3082L65.4205 29.1619C60.331 31.0845 56.6572 35.5805 55.7874 40.951L55.51 42.6636C54.8428 46.7827 54.6449 50.9641 54.9199 55.1277L56.0979 72.9599C62.4854 69.5474 68.3844 71.538 70.5355 72.9599Z" fill="#FFCC8C"/>
<path d="M76.9793 88.7898C81.2836 69.4203 93.6705 63.6584 99.1262 61.1347L97.8086 67.4834C83.8176 72.5623 78.0973 83.7588 76.9793 88.7898Z" fill="white"/>
<path d="M97.5614 66.4486C90.8071 69.7768 77.2382 76.7937 76.4175 93.0254C83.4655 88.8162 97.5614 77.6079 97.5614 66.4486Z" fill="black"/>
<path fill-rule="evenodd" clip-rule="evenodd" d="M66.6098 8.65879C67.2297 9.20218 67.7346 9.92905 68.147 10.6311L69.3795 12.7297C69.9385 13.6815 70.3509 14.8236 70.0903 15.9805C69.6272 18.0363 68.2756 19.8227 67.2134 20.8927C66.7029 21.407 65.9358 21.48 65.3133 21.1819L65.1175 21.0881C64.0268 20.5658 63.7512 19.1379 64.5692 18.2472L65.7825 16.9259C66.2575 16.4087 66.2322 15.6068 65.7257 15.1205C64.8279 14.2585 64.1385 13.2032 63.7099 12.0348L63.1381 10.4762C63.081 10.3207 63.1609 10.1483 63.3164 10.0913C63.472 10.0342 63.6443 10.114 63.7014 10.2696L64.2732 11.8282C64.6704 12.911 65.3093 13.8889 66.1412 14.6877C66.8831 15.3999 66.92 16.5743 66.2244 17.3317L65.0111 18.653C64.4658 19.2469 64.6495 20.1987 65.3766 20.547L65.5725 20.6408C65.9966 20.8439 66.4806 20.7792 66.7876 20.47C67.8102 19.4399 69.0767 17.7499 69.505 15.8486C69.7163 14.9106 69.3905 13.9333 68.8621 13.0335L67.6296 10.935C67.2295 10.2538 66.7631 9.59103 66.2143 9.11C65.6694 8.63241 65.0593 8.34706 64.3578 8.38101C62.852 8.45389 60.7889 9.36893 58.6715 12.4586C58.5779 12.5952 58.3911 12.6301 58.2545 12.5364C58.1178 12.4428 58.0829 12.2561 58.1766 12.1194C60.3661 8.92456 62.5827 7.86622 64.3288 7.78171C65.2297 7.73811 65.9859 8.11196 66.6098 8.65879Z" fill="black"/>
<path fill-rule="evenodd" clip-rule="evenodd" d="M66.7098 8.50813C68.2347 8.2743 69.7391 9.03804 70.4502 10.4071L71.9037 13.2052C72.4161 14.1917 72.6554 15.3584 72.1558 16.4383C71.5299 17.7913 70.4385 19.5848 69.4855 21.0494C68.7952 22.1103 67.355 22.3273 66.3609 21.5634L66.0312 21.31L66.3968 20.8343L66.7265 21.0876C67.4527 21.6457 68.4896 21.4799 68.9826 20.7222C69.9334 19.261 71.0046 17.4978 71.6113 16.1864C72.003 15.3396 71.8373 14.3791 71.3712 13.4818L69.9177 10.6836C69.3251 9.54279 68.0715 8.90634 66.8008 9.1012L66.516 9.14487L66.425 8.5518L66.7098 8.50813Z" fill="black"/>
<path fill-rule="evenodd" clip-rule="evenodd" d="M69.5922 9.47932C70.5985 9.1615 71.6894 9.59782 72.199 10.522L73.8301 13.4802C74.0935 13.9578 74.3733 14.5403 74.3103 15.1819C74.2293 16.006 73.872 17.0681 73.4162 18.1523C72.9574 19.2438 72.3868 20.3851 71.86 21.3763C71.167 22.6803 69.4174 22.8913 68.394 21.8506L68.8219 21.43C69.5731 22.1939 70.8354 22.0256 71.3302 21.0947C71.8527 20.1115 72.4141 18.9879 72.8631 17.9198C73.3151 16.8445 73.6415 15.8523 73.7132 15.1232C73.7565 14.6822 73.5666 14.2449 73.3047 13.7699L71.6736 10.8117C71.302 10.1379 70.5066 9.81973 69.7728 10.0515L69.5922 9.47932Z" fill="black"/>
<path fill-rule="evenodd" clip-rule="evenodd" d="M72.0158 10.3049L74.5302 13.2523C75.2385 14.1284 75.8849 15.2394 75.6238 16.4682C75.2832 18.0718 74.305 20.126 73.4952 21.6371C72.9827 22.5933 71.6944 22.7075 70.9841 21.9152L71.4309 21.5147C71.8774 22.0127 72.6602 21.9248 72.9663 21.3536C73.7748 19.8451 74.7156 17.8564 75.0369 16.3436C75.2376 15.3989 74.7523 14.4814 74.0636 13.6296L71.7136 10.723L72.0158 10.3049Z" fill="black"/>
<path fill-rule="evenodd" clip-rule="evenodd" d="M75.8904 18.8418C76.2756 18.974 76.6961 19.002 76.959 18.9863L76.9948 19.5852C76.671 19.6045 76.1696 19.572 75.6955 19.4093C75.2231 19.2471 74.7279 18.9364 74.5156 18.366L75.078 18.1567C75.2019 18.4899 75.5034 18.7089 75.8904 18.8418Z" fill="black"/>
<path fill-rule="evenodd" clip-rule="evenodd" d="M77.6234 16.2881C77.4409 16.0187 77.2978 16.0029 77.2681 16.0084C76.548 16.1435 75.78 16.0653 75.4765 16.0084C75.3137 15.9779 75.2064 15.8211 75.2369 15.6583C75.2675 15.4954 75.4242 15.3882 75.5871 15.4187C75.8439 15.4669 76.5329 15.5358 77.1576 15.4187C77.5481 15.3455 77.8945 15.6185 78.1202 15.9516C78.3594 16.3047 78.5351 16.8155 78.5856 17.4427C78.6872 18.7035 78.2878 20.4672 76.8195 22.5093C74.4838 25.7578 71.5457 27.3643 70.3325 27.7687C70.1753 27.8211 70.0054 27.7362 69.953 27.579C69.9006 27.4218 69.9855 27.2519 70.1427 27.1995C71.2403 26.8336 74.0728 25.3017 76.3324 22.159C77.7362 20.2066 78.0755 18.5812 77.9876 17.4909C77.9434 16.9427 77.7923 16.5374 77.6234 16.2881Z" fill="black"/>
<path d="M24.2668 25.2405C22.3185 25.2405 20.5748 26.1877 19.4877 27.6408C18.4005 26.1877 16.6568 25.2405 14.7085 25.2405C11.4041 25.2405 8.72388 27.9314 8.72388 31.2574C8.72388 32.5383 8.92839 33.7223 9.28359 34.8202C10.9843 40.2021 16.2262 43.4205 18.8203 44.3031C19.1863 44.4323 19.789 44.4323 20.155 44.3031C22.7491 43.4205 27.991 40.2021 29.6917 34.8202C30.0469 33.7223 30.2514 32.5383 30.2514 31.2574C30.2514 27.9314 27.5712 25.2405 24.2668 25.2405Z" fill="#FF0000"/>
</g>
</svg>
