<svg width="110" height="110" viewBox="0 0 110 110" fill="none" xmlns="http://www.w3.org/2000/svg">
<g clip-path="url(#clip0_114_313)">
<circle cx="55" cy="55" r="55" fill="#1BB1F8"/>
<path d="M105.081 77.769C108.24 70.8308 110 63.1208 110 54.9998C110 52.1004 109.776 49.2535 109.344 46.4753L108.035 46.8518C103.434 48.1755 100.265 52.3848 100.265 57.1723L96.8199 58.1148C93.6011 58.9954 91.369 61.9202 91.369 65.2573H90.9263C86.5966 65.2573 82.5779 67.5067 80.314 71.1973L105.081 77.769Z" fill="white"/>
<path d="M4.99424 77.9318C1.94174 71.2864 0.174954 63.9279 0.0124512 56.1749L1.3249 55.9356C4.79316 55.3034 8.17468 57.4078 9.13921 60.7987L9.1989 61.0085L10.5051 60.937C13.4579 60.7754 16.0411 62.9054 16.4452 65.8348L18.5208 65.7291C20.8733 65.6093 23.078 66.8782 24.156 68.9726L25.5064 71.596L4.99424 77.9318Z" fill="white"/>
<path d="M105.566 76.6698C97.1546 96.2703 77.6804 109.999 54.9998 109.999C32.3192 109.999 12.845 96.2703 4.43384 76.6698C18.6623 71.7281 36.1261 68.8171 54.9998 68.8171C73.8735 68.8171 91.3373 71.7281 105.566 76.6698Z" fill="#058CCC"/>
<path d="M88.9507 98.2737L96.0699 37.1956L103.919 80.1633C100.278 87.2284 95.1504 93.4028 88.9507 98.2737Z" fill="#F58C12"/>
<path d="M8.84253 84.9211L10.996 38.4742C11.1409 35.348 13.7177 32.8879 16.8472 32.8879H90.4001C93.8874 32.8879 96.6023 35.9162 96.2228 39.3828L89.8561 97.5468C80.3676 105.329 68.229 110 54.9995 110C35.6578 110 18.648 100.016 8.84253 84.9211Z" fill="white"/>
<path d="M42.8869 62.2249H24.9426L23.0027 78.3909H40.8662L42.8869 62.2249Z" fill="#1BB1F8"/>
<path d="M93.7141 62.306L91.9278 78.6252L58.7292 78.0679L60.5883 62.306H93.7141Z" fill="#1BB1F8"/>
<path opacity="0.5" d="M61.0774 62.1637H42.6249L38.8162 94.3799H56.8837L61.0774 62.1637Z" fill="#1BB1F8"/>
<path d="M20.296 97.6711L26.2373 46.5754L27.2753 46.6961L21.2589 98.4375C20.935 98.1855 20.614 97.93 20.296 97.6711Z" fill="black"/>
<path d="M37.0843 107.016L44.1123 46.5754L45.1503 46.6961L38.0971 107.354C37.7581 107.244 37.4205 107.132 37.0843 107.016Z" fill="black"/>
<path d="M54.6125 109.999L61.9873 46.5754L63.0253 46.6961L55.6649 109.996C55.4436 109.999 55.2219 110 55 110C54.8707 110 54.7416 109.999 54.6125 109.999Z" fill="black"/>
<path d="M72.831 107.045L79.8623 46.5754L80.9003 46.6961L73.9282 106.656C73.5643 106.79 73.1985 106.919 72.831 107.045Z" fill="black"/>
<path d="M16.9393 94.7038C16.581 94.3602 16.2273 94.0118 15.8784 93.6588H90.2821L90.1677 94.7038H16.9393Z" fill="black"/>
<path d="M92.028 77.7088L91.9136 78.7538H9.12891L9.17736 77.7088H92.028Z" fill="black"/>
<path d="M93.7739 61.7588L93.6595 62.8038H9.86842L9.91687 61.7588H93.7739Z" fill="black"/>
<path d="M10.5703 47.6662L10.9965 38.4734C11.1415 35.3473 13.7182 32.8872 16.8477 32.8872H90.4006C93.888 32.8872 96.6028 35.9155 96.2234 39.3821L95.3166 47.6662H10.5703Z" fill="#FFB140"/>
<path d="M31.4624 36.3089C31.4624 37.405 30.5737 38.2937 29.4776 38.2937C28.3814 38.2937 27.4928 37.405 27.4928 36.3089C27.4928 35.2127 28.3814 34.3241 29.4776 34.3241C30.5737 34.3241 31.4624 35.2127 31.4624 36.3089Z" fill="white"/>
<path d="M27.8915 32.1972C27.8915 29.5839 30.01 27.4655 32.6232 27.4655C35.2364 27.4655 37.3549 29.5839 37.3549 32.1972C37.3549 32.4325 37.3377 32.6635 37.3047 32.8891H38.3311C38.3584 32.6621 38.3724 32.4312 38.3724 32.1972C38.3724 29.022 35.7984 26.448 32.6232 26.448C29.448 26.448 26.874 29.022 26.874 32.1972C26.874 34.0602 27.7608 35.7164 29.1331 36.7662C29.3563 36.9369 29.6756 36.8943 29.8463 36.6712C30.017 36.448 29.9745 36.1287 29.7513 35.958C28.6198 35.0925 27.8915 33.73 27.8915 32.1972Z" fill="black"/>
<path d="M52.1154 36.3089C52.1154 37.405 51.2268 38.2937 50.1306 38.2937C49.0345 38.2937 48.1458 37.405 48.1458 36.3089C48.1458 35.2127 49.0345 34.3241 50.1306 34.3241C51.2268 34.3241 52.1154 35.2127 52.1154 36.3089Z" fill="white"/>
<path d="M48.5446 32.1972C48.5446 29.5839 50.663 27.4655 53.2763 27.4655C55.8895 27.4655 58.008 29.5839 58.008 32.1972C58.008 32.4325 57.9908 32.6635 57.9578 32.8891H58.9842C59.0115 32.6621 59.0255 32.4312 59.0255 32.1972C59.0255 29.022 56.4515 26.448 53.2763 26.448C50.1011 26.448 47.5271 29.022 47.5271 32.1972C47.5271 34.0602 48.4138 35.7164 49.7862 36.7662C50.0094 36.9369 50.3287 36.8943 50.4994 36.6712C50.6701 36.448 50.6276 36.1287 50.4044 35.958C49.2729 35.0925 48.5446 33.73 48.5446 32.1972Z" fill="black"/>
<path d="M72.7673 36.3089C72.7673 37.405 71.8787 38.2937 70.7825 38.2937C69.6863 38.2937 68.7977 37.405 68.7977 36.3089C68.7977 35.2127 69.6863 34.3241 70.7825 34.3241C71.8787 34.3241 72.7673 35.2127 72.7673 36.3089Z" fill="white"/>
<path d="M69.1965 32.1972C69.1965 29.5839 71.3149 27.4655 73.9281 27.4655C76.5414 27.4655 78.6598 29.5839 78.6598 32.1972C78.6598 32.4325 78.6427 32.6635 78.6096 32.8891H79.636C79.6633 32.6621 79.6773 32.4312 79.6773 32.1972C79.6773 29.022 77.1033 26.448 73.9281 26.448C70.7529 26.448 68.179 29.022 68.179 32.1972C68.179 34.0602 69.0657 35.7164 70.4381 36.7662C70.6612 36.9369 70.9805 36.8943 71.1512 36.6712C71.3219 36.448 71.2794 36.1287 71.0562 35.958C69.9247 35.0925 69.1965 33.73 69.1965 32.1972Z" fill="black"/>
</g>
<defs>
<clipPath id="clip0_114_313">
<rect width="110" height="110" fill="white"/>
</clipPath>
</defs>
</svg>
