<svg width="20" height="21" viewBox="0 0 20 21" fill="none" xmlns="http://www.w3.org/2000/svg">
<path d="M19.1265 10.0434L16.3937 12.861C16.0184 13.2472 15.7636 14.0198 15.8414 14.5727L16.2662 17.875C16.5423 19.9882 15.3175 20.9047 13.5476 19.92L10.5457 18.2386C10.043 17.9583 9.22175 17.9735 8.73324 18.284L6.10661 19.9276C4.0322 21.2228 2.79322 20.2457 3.34545 17.7463L4.11716 14.2546C4.25876 13.6184 3.9968 12.7473 3.55077 12.3156L1.06573 9.91463C-0.711316 8.19531 -0.215724 6.63505 2.17727 6.43812L5.20746 6.19575C5.77385 6.15031 6.4606 5.67314 6.72256 5.13537L8.29429 1.90881C9.22175 0.022854 10.7156 0.0304284 11.6147 1.93153L13.0166 4.90058C13.2573 5.40047 13.8662 5.88521 14.383 5.96853L18.1353 6.6199C20.1602 6.98346 20.6062 8.521 19.1265 10.0434Z" fill="white"/>
</svg>
