<svg width="390" height="245" viewBox="0 0 390 245" fill="none" xmlns="http://www.w3.org/2000/svg">
<ellipse cx="195.001" cy="122.5" rx="122.755" ry="122.5" fill="#1BB1F8"/>
<mask id="mask0_67_633" style="mask-type:alpha" maskUnits="userSpaceOnUse" x="72" y="0" width="246" height="245">
<ellipse cx="194.999" cy="122.5" rx="122.755" ry="122.5" fill="#1BB1F8"/>
</mask>
<g mask="url(#mask0_67_633)">
<ellipse cx="194.999" cy="122.5" rx="122.755" ry="122.5" fill="#1BB1F8"/>
<path opacity="0.05" fill-rule="evenodd" clip-rule="evenodd" d="M75.4166 66.4507H88.6813V43.9341H88.2287C89.3686 42.3333 90.5444 40.7598 91.7551 39.2148V40.8636H114.296V18.347H112.347C113.988 17.025 115.663 15.7427 117.37 14.5013V15.2765H139.91V1.38294C140.928 0.922411 141.953 0.474764 142.984 0.0402021V15.2765H165.525V-7.07686C166.545 -7.29747 167.57 -7.50596 168.599 -7.70218V15.2765H191.14V-9.96873C191.694 -9.97576 192.249 -9.97929 192.804 -9.97929C193.275 -9.97929 193.744 -9.97677 194.213 -9.97173V15.2765H216.754V-7.75071C217.783 -7.55667 218.808 -7.35036 219.828 -7.13193V15.2765H242.369V-0.067338C243.4 0.364566 244.425 0.809543 245.442 1.26739V15.2765H267.983V14.3155C269.778 15.6146 271.538 16.959 273.262 18.347H271.057V40.8636H293.598V38.8891C294.899 40.5385 296.16 42.2206 297.38 43.9341H296.672V66.4507H310.192C310.641 67.4673 311.077 68.4909 311.499 69.5211H296.672V92.0377H318.373C318.583 93.0568 318.781 94.0803 318.967 95.1081H296.672V117.625H321.005C321.005 117.735 321.005 117.846 321.005 117.956C321.005 118.871 320.996 119.785 320.977 120.695H296.672V143.212H318.508C318.302 144.24 318.083 145.263 317.852 146.282H296.672V168.799H310.482C310.035 169.83 309.574 170.853 309.1 171.869H296.672V192.964C295.565 194.487 294.426 195.985 293.255 197.456H271.057V219.302C269.384 220.59 267.679 221.838 265.942 223.044H245.442V234.645C244.425 235.103 243.4 235.548 242.369 235.98V223.044H219.828V243.044C218.808 243.263 217.783 243.469 216.754 243.663V223.044H194.213V245.884C193.744 245.889 193.275 245.892 192.804 245.892C192.249 245.892 191.694 245.888 191.14 245.881V223.044H168.599V243.615C167.57 243.418 166.545 243.21 165.525 242.989V223.044H142.984V235.872C141.953 235.438 140.928 234.99 139.91 234.529V223.044H119.667C117.841 221.776 116.05 220.462 114.296 219.104V197.456H92.3544C91.0927 195.871 89.8679 194.255 88.6813 192.61V171.869H76.509C76.0351 170.853 75.5741 169.83 75.1264 168.799H88.6813V146.282H67.7567C67.5259 145.263 67.3073 144.24 67.101 143.212H88.6813V120.695H64.6323C64.6131 119.785 64.6035 118.871 64.6035 117.956C64.6035 117.846 64.6037 117.735 64.6039 117.625H88.6813V95.1081H66.6421C66.8278 94.0803 67.0257 93.0568 67.2359 92.0377H88.6813V69.5211H74.1097C74.5323 68.4909 74.968 67.4673 75.4166 66.4507ZM117.37 40.8636V18.347H139.91V40.8636H117.37ZM142.984 40.8636V18.347H165.525V40.8636H142.984ZM168.599 40.8636V18.347H191.14V40.8636H168.599ZM194.213 40.8636V18.347H216.754V40.8636H194.213ZM219.828 40.8636V18.347H242.369V40.8636H219.828ZM245.442 40.8636V18.347H267.983V40.8636H245.442ZM271.057 43.9341H293.598V66.4507H271.057V43.9341ZM271.057 69.5211H293.598V92.0377H271.057V69.5211ZM271.057 95.1081H293.598V117.625H271.057V95.1081ZM271.057 120.695H293.598V143.212H271.057V120.695ZM271.057 146.282H293.598V168.799H271.057V146.282ZM271.057 171.869H293.598V194.386H271.057V171.869ZM267.983 197.456V219.973H245.442V197.456H267.983ZM242.369 197.456V219.973H219.828V197.456H242.369ZM216.754 197.456V219.973H194.213V197.456H216.754ZM191.14 197.456V219.973H168.599V197.456H191.14ZM165.525 197.456V219.973H142.984V197.456H165.525ZM139.91 197.456V219.973H117.37V197.456H139.91ZM114.296 194.386H91.7551V171.869H114.296V194.386ZM114.296 168.799H91.7551V146.282H114.296V168.799ZM114.296 143.212H91.7551V120.695H114.296V143.212ZM114.296 117.625H91.7551V95.1081H114.296V117.625ZM114.296 92.0377H91.7551V69.5211H114.296V92.0377ZM114.296 66.4507H91.7551V43.9341H114.296V66.4507ZM117.37 66.4507V43.9341H139.91V66.4507H117.37ZM142.984 66.4507V43.9341H165.525V66.4507H142.984ZM168.599 66.4507V43.9341H191.14V66.4507H168.599ZM194.213 66.4507V43.9341H216.754V66.4507H194.213ZM219.828 66.4507V43.9341H242.369V66.4507H219.828ZM245.442 66.4507V43.9341H267.983V66.4507H245.442ZM245.442 69.5211H267.983V92.0377H245.442V69.5211ZM245.442 95.1081H267.983V117.625H245.442V95.1081ZM245.442 120.695H267.983V143.212H245.442V120.695ZM245.442 146.282H267.983V168.799H245.442V146.282ZM245.442 171.869H267.983V194.386H245.442V171.869ZM242.369 171.869V194.386H219.828V171.869H242.369ZM216.754 171.869V194.386H194.213V171.869H216.754ZM191.14 171.869V194.386H168.599V171.869H191.14ZM165.525 171.869V194.386H142.984V171.869H165.525ZM139.91 171.869V194.386H117.37V171.869H139.91ZM139.91 168.799H117.37V146.282H139.91V168.799ZM139.91 143.212H117.37V120.695H139.91V143.212ZM139.91 117.625H117.37V95.1081H139.91V117.625ZM139.91 92.0377H117.37V69.5211H139.91V92.0377ZM142.984 92.0377V69.5211H165.525V92.0377H142.984ZM168.599 92.0377V69.5211H191.14V92.0377H168.599ZM194.213 92.0377V69.5211H216.754V92.0377H194.213ZM219.828 92.0377V69.5211H242.369V92.0377H219.828ZM219.828 95.1081H242.369V117.625H219.828V95.1081ZM219.828 120.695H242.369V143.212H219.828V120.695ZM219.828 146.282H242.369V168.799H219.828V146.282ZM216.754 146.282V168.799H194.213V146.282H216.754ZM191.14 146.282V168.799H168.599V146.282H191.14ZM165.525 146.282V168.799H142.984V146.282H165.525ZM165.525 143.212H142.984V120.695H165.525V143.212ZM165.525 117.625H142.984V95.1081H165.525V117.625ZM168.599 117.625V95.1081H191.14V117.625H168.599ZM194.213 117.625V95.1081H216.754V117.625H194.213ZM194.213 120.695H216.754V143.212H194.213V120.695ZM191.14 120.695V143.212H168.599V120.695H191.14Z" fill="black"/>
<path d="M183.825 67.892L186.443 65.9164H205.043L207.8 67.9154C210.964 70.2092 214.696 71.5965 218.593 71.9275C222.355 72.2471 225.851 73.9987 228.355 76.8194L228.529 77.0155C243.308 75.0485 247.509 88.5761 247.762 95.5858C261.166 103.644 265.002 120.544 265.245 127.986C277.629 126.636 284.393 131.309 291.365 136.709C296.943 141.029 307.148 145.571 311.554 147.302C313.135 151.04 310.256 154.938 308.618 156.419C305.171 155.481 294.429 152.973 279.033 150.45C263.637 147.928 258.108 141.928 257.268 139.244C240.473 131.149 229.339 108.094 225.871 97.5778C226.782 109.662 224.229 117.991 222.838 120.646V156.419C204.915 170.16 179.742 163.044 169.395 157.769L168.791 120.646C165.312 114.591 165.568 102.744 166.13 97.5778C158.237 122.193 141.476 135.612 134.082 139.244C134.114 139.772 133.705 141.326 131.822 143.318C125.429 149.698 96.4317 154.711 82.7321 156.419C79.9009 153.594 79.6497 149.318 79.8781 147.533C82.8463 146.85 91.3857 143.455 101.797 135.343C112.209 127.232 122.735 127.211 126.696 128.214C126.262 110.566 138.052 98.9818 144.001 95.3955C146.35 77.1398 157.97 75.5356 163.487 77.0155C164.555 75.0514 166.461 73.6793 168.666 73.2869L173.374 72.4491C177.169 71.7737 180.75 70.2121 183.825 67.892Z" fill="#FFA59A"/>
<path d="M157.349 116.353C149.2 129.211 139.286 136.675 134.057 139.243C134.088 139.771 133.68 141.325 131.797 143.317C125.404 149.697 96.4063 154.71 82.7067 156.419C79.8755 153.594 79.6243 149.318 79.8527 147.533C81.7203 147.103 85.7936 145.599 91.1512 142.523H91.5669C103.515 141.206 114.518 134.585 118.527 131.438C117.13 136.352 109.152 142.294 105.338 144.652C115.501 143.181 125.126 138.049 128.668 135.667C126.917 132.83 126.532 129.924 126.917 128.91C126.62 130.349 129.053 132.904 134.876 131.438C141.661 128.91 144.78 118.143 145.667 112.519L157.349 116.353Z" fill="#D78A80"/>
<path d="M300.612 142.325C304.859 144.506 309.106 146.339 311.557 147.302C313.139 151.041 310.259 154.938 308.622 156.42C305.175 155.481 294.432 152.973 279.036 150.451C263.64 147.928 258.111 141.929 257.271 139.244C248.706 135.116 241.613 127.097 236.259 118.835L245.988 113.379C247.374 120.161 252.096 133.463 261.309 131.857C263.526 131.707 265.021 129.788 264.99 128.818C265.625 129.807 264.99 132.604 262.919 135.761C265.33 137.901 273.451 142.677 286.653 144.653C283.147 142.881 275.576 137.84 273.348 131.857C278.449 135.685 290.695 142.838 300.612 142.325Z" fill="#D78A80"/>
<path d="M159.068 240.045C156.006 230.54 156.28 220.714 156.8 216.989L184.861 230.09C185.04 241.026 182.382 247.747 181.031 249.741C179.344 251.844 175.971 257.859 175.971 265.091C177.251 282.401 175.629 290.642 174.692 295.226C173.942 298.893 172.504 310.849 171.879 316.368H158.567C158.099 306.857 157.105 286.189 156.88 279.603C156.599 271.37 158.218 268.901 159.068 266.638C159.918 264.375 162.895 251.927 159.068 240.045Z" fill="#FFA59A"/>
<path d="M159.76 264.152C161.109 266.617 163.74 270.214 165.909 269.131C167.566 268.304 166.926 264.935 166.282 261.542C165.764 258.816 165.243 256.075 165.909 254.625C167.404 251.372 169.849 251.236 171.343 251.372L182.769 245.882C183.905 242.474 184.977 237.163 184.861 230.09L156.8 216.989C156.28 220.714 156.006 230.54 159.068 240.045C162.131 249.556 160.835 259.43 159.76 264.152Z" fill="#F19B91"/>
<path d="M164.423 316.369H162.886L160.958 315.813C161.389 309.32 162.569 294.684 163.847 288.077C164.399 285.218 165.703 280.515 167.108 275.449C169.76 265.885 172.77 255.026 171.763 252.834C171.481 252.22 170.991 251.641 170.408 250.95C167.805 247.869 163.337 242.581 167.126 222.209L171.095 225.177V238.9C171.095 241.646 172.983 244.034 175.659 244.674C177.635 245.146 179.64 244.009 180.245 242.073L184.02 229.999H184.672L184.867 230.09C185.045 241.026 182.387 247.747 181.036 249.741C179.35 251.844 175.977 257.859 175.977 265.092C177.256 282.401 175.635 290.642 174.697 295.226C173.947 298.893 172.51 310.849 171.885 316.369H165.532L165.443 316.33C165.9 311.093 167.032 299.125 167.906 293.141C168.999 285.662 167.75 284.649 167.126 285.506C166.512 286.348 163.605 307.71 164.423 316.369Z" fill="#D78A80"/>
<path d="M231.949 240.047C235.01 230.541 234.736 220.715 234.217 216.99L206.155 230.091C205.977 241.027 208.635 247.748 209.986 249.742C211.672 251.845 215.045 257.86 215.045 265.093C213.765 282.402 215.387 290.643 216.325 295.227C217.075 298.894 218.512 310.85 219.137 316.37H232.449C232.918 306.859 233.912 286.19 234.137 279.604C234.418 271.371 232.799 268.902 231.949 266.639C231.098 264.376 228.122 251.928 231.949 240.047Z" fill="#FFA59A"/>
<path d="M231.257 264.153C229.908 266.619 227.277 270.215 225.107 269.133C223.45 268.306 224.09 264.936 224.735 261.543C225.252 258.817 225.773 256.076 225.107 254.627C223.613 251.373 221.168 251.237 219.673 251.373L208.248 245.883C207.111 242.475 206.04 237.165 206.155 230.091L234.217 216.99C234.736 220.715 235.01 230.541 231.949 240.047C228.885 249.558 230.181 259.431 231.257 264.153Z" fill="#F19B91"/>
<path d="M226.592 316.37H228.129L230.058 315.814C229.627 309.321 228.446 294.685 227.169 288.078C226.616 285.219 225.312 280.516 223.908 275.45C221.256 265.886 218.245 255.027 219.253 252.835C219.535 252.221 220.025 251.642 220.608 250.951C223.211 247.87 227.678 242.582 223.89 222.21L219.921 225.178V238.9C219.921 241.647 218.033 244.035 215.356 244.675C213.38 245.147 211.376 244.01 210.771 242.074L206.996 230H206.344L206.149 230.091C205.971 241.027 208.628 247.748 209.979 249.742C211.666 251.845 215.039 257.86 215.039 265.093C213.759 282.402 215.381 290.643 216.318 295.227C217.068 298.894 218.506 310.85 219.131 316.37H225.484L225.572 316.331C225.116 311.094 223.984 299.126 223.109 293.142C222.016 285.663 223.265 284.65 223.89 285.507C224.503 286.349 227.411 307.711 226.592 316.37Z" fill="#D78A80"/>
<path d="M155.94 217.096L169.39 157.775C194.777 164.237 215.67 159.442 222.88 156.23L236.018 215.102C230.998 225.564 212.704 230.515 204.184 231.683L195.411 204.853L186.779 230.129C179.308 232.728 163.107 222.523 155.94 217.096Z" fill="black"/>
<path d="M186.412 65.9167L183.793 67.8923C180.719 70.2124 177.137 71.7739 173.342 72.4493L168.635 73.2871C166.43 73.6795 164.524 75.0517 163.456 77.0157C157.939 75.5358 146.319 77.14 143.97 95.3957C141.896 96.6456 139.113 98.867 136.386 101.978C137.777 106.356 143.511 115.968 155.318 119.392C159.477 113.455 163.332 106.204 166.098 97.578C165.536 102.744 165.281 114.591 168.76 120.646L169.364 157.769C179.71 163.045 204.884 170.16 222.807 156.42V120.646C224.197 117.992 226.751 109.662 225.84 97.578C227.577 102.848 231.24 111.266 236.576 119.373C241.479 117.822 252.115 112.218 255.434 102.208C253.31 99.6887 250.766 97.4108 247.731 95.5861C247.478 88.5764 243.277 75.0487 228.498 77.0157L228.324 76.8197C225.819 73.9989 222.324 72.2474 218.561 71.9278C214.665 71.5968 210.933 70.2094 207.769 67.9157L205.011 65.9167H186.412Z" fill="white"/>
<path d="M222.806 120.833C206.171 126.135 197.062 120.253 194.568 116.598C187.89 125.702 174.671 123.139 168.76 120.673L168.865 127.166C186.692 130.596 192.751 124.502 194.568 122.274C195.086 125.226 200.055 126.487 204.198 127.002C206.414 127.278 208.188 129.084 208.188 131.313V163.207C213.287 162.032 218.278 159.891 222.806 156.42V120.833Z" fill="#DAD1FF"/>
<path d="M194.652 132.331C192.578 135.564 188.119 136.158 185.431 136.02C185.32 136.015 185.273 136.141 185.378 136.167C195.233 138.694 205.128 136.741 208.931 135.408C198.115 136.854 195.152 134.232 194.923 132.364C194.914 132.29 194.696 132.263 194.652 132.331Z" fill="#DAD1FF"/>
<path d="M195.046 141.764C192.48 144.987 186.963 145.58 183.638 145.442C183.5 145.437 183.442 145.562 183.571 145.589C195.765 148.108 208.008 146.161 212.713 144.832C199.331 146.274 195.665 143.659 195.382 141.796C195.37 141.723 195.1 141.696 195.046 141.764Z" fill="#DAD1FF"/>
<path d="M194.294 151.181C191.915 154.405 186.801 154.997 183.718 154.86C183.591 154.855 183.537 154.98 183.657 155.007C194.96 157.526 206.309 155.579 210.671 154.249C198.266 155.691 194.868 153.077 194.605 151.214C194.594 151.141 194.344 151.114 194.294 151.181Z" fill="#DAD1FF"/>
<path d="M186.227 65.6847L186.353 62.4095L205.306 62.5946L205.088 66.562C204.821 71.4249 200.884 75.2832 196.007 75.4618C190.518 75.6629 186.016 71.1626 186.227 65.6847Z" fill="#FFA59A"/>
<path d="M205.153 65.6305C202.394 67.0633 199.246 67.8475 195.915 67.7839C192.379 67.7163 189.083 66.701 186.268 64.9853L186.367 62.4093L205.32 62.5944L205.153 65.6305Z" fill="#6C6666"/>
<path d="M177.033 46.2231L177.212 37.4611V20.802L215.911 20.0524L215.52 46.8926C215.365 57.5334 206.57 66.0199 195.907 65.8162C185.271 65.613 176.817 56.8372 177.033 46.2231Z" fill="#FFA59A"/>
<path fill-rule="evenodd" clip-rule="evenodd" d="M202.993 36.9118C203.905 37.0672 204.501 37.5364 204.663 37.8352C204.862 38.2055 205.325 38.3437 205.696 38.1441C206.068 37.9444 206.206 37.4824 206.006 37.1121C205.55 36.2675 204.451 35.6149 203.251 35.4102C201.996 35.1963 200.5 35.4404 199.17 36.5485C198.846 36.818 198.802 37.2984 199.072 37.6213C199.342 37.9443 199.823 37.9876 200.147 37.7181C201.102 36.9231 202.135 36.7656 202.993 36.9118Z" fill="black"/>
<path fill-rule="evenodd" clip-rule="evenodd" d="M189.836 37.4364C190.76 37.4785 191.41 37.8708 191.607 38.1475C191.851 38.4903 192.328 38.5706 192.671 38.3268C193.015 38.0831 193.095 37.6075 192.851 37.2647C192.294 36.4826 191.123 35.9702 189.906 35.9147C188.634 35.8567 187.18 36.2828 185.996 37.546C185.709 37.8533 185.725 38.3353 186.033 38.6226C186.341 38.9099 186.824 38.8937 187.111 38.5864C187.961 37.6801 188.967 37.3968 189.836 37.4364Z" fill="black"/>
<path fill-rule="evenodd" clip-rule="evenodd" d="M196.471 46.5875C196.842 46.5991 197.132 46.908 197.121 47.2775L197.056 49.3482C197.637 49.4181 198.179 49.5989 198.624 49.9083C199.269 50.3557 199.669 51.0455 199.691 51.9066C199.735 53.6525 198.158 54.9463 196.389 54.9909C196.019 55.0002 195.711 54.7082 195.701 54.3387C195.692 53.9692 195.985 53.662 196.355 53.6527C197.577 53.6219 198.371 52.7681 198.35 51.9404C198.339 51.5146 198.16 51.2164 197.858 51.0071C197.535 50.7826 197.032 50.6381 196.382 50.6545C196.197 50.6591 196.019 50.5878 195.889 50.4572C195.759 50.3266 195.689 50.1484 195.694 49.9644L195.78 47.2355C195.792 46.8661 196.101 46.5759 196.471 46.5875Z" fill="black"/>
<path d="M191.004 58.0913C191.193 60.2416 193.106 61.8311 195.278 61.6416C196.775 61.5111 198.004 60.5697 198.561 59.2934C198.709 58.9548 198.486 58.5886 198.128 58.4965L191.775 56.8641C191.419 56.7726 191.048 56.9819 191.01 57.3467C190.985 57.5898 190.982 57.8388 191.004 58.0913Z" fill="white"/>
<ellipse cx="1.34876" cy="1.95776" rx="1.34876" ry="1.95776" transform="matrix(0.999682 -0.0252016 0.0253068 0.99968 189.341 40.7796)" fill="black"/>
<ellipse cx="1.34876" cy="1.95776" rx="1.34876" ry="1.95776" transform="matrix(0.999815 0.0192637 -0.0193441 0.999813 200.679 40.584)" fill="black"/>
<path d="M177.39 36.2599C177.148 36.2006 176.897 36.1695 176.641 36.1695C174.473 36.1695 172.716 38.3939 172.716 41.1377C172.716 43.8815 174.473 46.1058 176.641 46.1058C176.839 46.1058 177.033 46.0874 177.223 46.0517L177.39 36.2599Z" fill="#FFA59A"/>
<ellipse cx="216.073" cy="42.1203" rx="3.92535" ry="4.96815" fill="#FFA59A"/>
<path d="M183.998 29.8581C180.416 30.3367 177.999 34.4143 177.238 36.3932C175.754 35.8979 174.298 37.1075 173.738 37.8007L173.701 25.8073C174.243 20.0049 178.145 18.2784 180.028 18.1404C185.813 9.07596 194.541 10.4048 198.181 12.2023C213.185 8.95507 218.713 21.1721 219.601 27.6865V39.8906C218.782 37.7277 216.704 37.1159 215.768 37.0804V33.4266C210.604 32.9807 206.666 28.8646 205.342 26.8623C205.026 29.3876 207.805 31.6969 209.616 32.7775C209.778 32.8738 209.733 33.1225 209.546 33.1445C205.363 33.6368 203.27 31.1976 202.736 29.8581C202.206 31.9888 203.795 33.5552 204.939 34.2574C205.087 34.3481 205.068 34.5655 204.897 34.5961C203.996 34.7576 202.41 34.6697 200.874 33.4266C199.138 32.0218 198.965 26.0061 199.108 22.7015C199.116 22.5171 198.888 22.4222 198.763 22.5574L197.653 23.7502C197.58 23.828 197.459 23.8345 197.379 23.7648L196.327 22.8524C196.219 22.7583 196.049 22.8074 196.004 22.9436C195.49 24.5016 194.045 27.7786 191.627 30.516C189.569 32.8464 186.548 33.3133 184.532 33.2194C184.306 33.2089 184.267 32.7486 184.466 32.6406C185.845 31.8922 187.275 30.3397 187.948 29.471C187.842 29.471 186.904 29.5484 183.998 29.8581Z" fill="black"/>
<path fill-rule="evenodd" clip-rule="evenodd" d="M175.613 40.6802C175.442 40.5064 175.289 40.4005 175.169 40.3478C175.093 40.3146 175.04 40.3068 175.009 40.3077C174.981 40.3086 174.972 40.3157 174.969 40.3188C174.853 40.4168 174.68 40.4029 174.582 40.2878C174.484 40.1728 174.498 40.0001 174.613 39.9022C174.841 39.709 175.139 39.7369 175.39 39.8469C175.645 39.9589 175.914 40.1771 176.176 40.4845C176.352 40.6903 176.514 40.986 176.605 41.2606C176.65 41.3978 176.682 41.5458 176.681 41.6845C176.68 41.8174 176.647 41.9944 176.503 42.1174C176.387 42.2153 176.214 42.2014 176.116 42.0864C176.023 41.9773 176.031 41.8165 176.13 41.7166C176.131 41.7098 176.133 41.6984 176.133 41.681C176.133 41.623 176.118 41.5373 176.084 41.4309C176.05 41.329 176.003 41.2228 175.949 41.1235C175.886 41.1882 175.815 41.2533 175.736 41.3148C175.515 41.487 175.218 41.644 174.863 41.6704C174.712 41.6816 174.58 41.5686 174.569 41.4179C174.558 41.2672 174.671 41.136 174.822 41.1248C175.037 41.1088 175.234 41.0117 175.399 40.8835C175.484 40.817 175.556 40.7456 175.613 40.6802ZM176.128 41.7249C176.128 41.7249 176.128 41.7244 176.129 41.7234C176.128 41.7243 176.128 41.7249 176.128 41.7249Z" fill="black"/>
<path fill-rule="evenodd" clip-rule="evenodd" d="M216.944 41.5282C217.132 41.3727 217.294 41.2828 217.419 41.2425C217.498 41.2171 217.551 41.2147 217.582 41.2188C217.61 41.2224 217.618 41.2305 217.622 41.2339C217.726 41.343 217.9 41.3467 218.009 41.2422C218.119 41.1376 218.122 40.9644 218.018 40.8554C217.811 40.6401 217.511 40.6378 217.251 40.7219C216.985 40.8075 216.695 40.9974 216.403 41.2766C216.208 41.4636 216.016 41.7414 215.898 42.0054C215.84 42.1374 215.793 42.2813 215.779 42.4194C215.767 42.5517 215.781 42.7311 215.913 42.8681C216.018 42.9772 216.191 42.9809 216.301 42.8764C216.404 42.7773 216.413 42.6165 216.324 42.5071C216.324 42.5002 216.324 42.4887 216.325 42.4714C216.331 42.4136 216.354 42.3299 216.4 42.2275C216.443 42.1296 216.501 42.0286 216.564 41.9354C216.62 42.0061 216.685 42.078 216.757 42.1472C216.96 42.3408 217.239 42.5271 217.59 42.5893C217.739 42.6157 217.881 42.5165 217.908 42.3677C217.934 42.219 217.835 42.077 217.686 42.0505C217.473 42.0129 217.287 41.8964 217.137 41.7522C217.058 41.6775 216.994 41.5991 216.944 41.5282ZM216.325 42.5155C216.325 42.5156 216.325 42.5151 216.325 42.514C216.325 42.515 216.326 42.5155 216.325 42.5155Z" fill="black"/>
</g>
<path fill-rule="evenodd" clip-rule="evenodd" d="M0 159.894C0 157.721 1.76522 155.96 3.94272 155.96H312.134C314.311 155.96 316.076 157.721 316.076 159.894C316.076 162.067 314.311 163.829 312.134 163.829H3.94272C1.76522 163.829 0 162.067 0 159.894Z" fill="#F8D14F"/>
<path fill-rule="evenodd" clip-rule="evenodd" d="M73.9238 159.894C73.9238 157.721 75.689 155.959 77.8666 155.959H386.057C388.235 155.959 390 157.721 390 159.894C390 162.067 388.235 163.828 386.057 163.828H77.8666C75.689 163.828 73.9238 162.067 73.9238 159.894Z" fill="#F8D14F"/>
<path d="M21.4398 189.184L24.8719 189.935L27.873 129.309L23.2459 128.288L14.2036 159.058L21.4398 189.184Z" fill="#232323"/>
<path d="M32.2952 159.579C31.8175 176.397 26.9591 189.651 21.4438 189.184C15.9284 188.717 11.8447 174.705 12.3224 157.887C12.8002 141.069 17.6585 127.814 23.1739 128.281C28.6892 128.748 32.773 142.761 32.2952 159.579Z" fill="#232323"/>
<ellipse cx="10.1895" cy="30.4639" rx="10.1895" ry="30.4639" transform="matrix(0.99643 0.0844147 -0.0283955 0.999597 17.5 128.377)" fill="#474747"/>
<ellipse cx="2.65595" cy="8.07317" rx="2.65595" ry="8.07317" transform="matrix(0.99643 0.0844147 -0.0283955 0.999597 25.1279 151.414)" fill="black"/>
<path d="M29.6428 194.969L34.1117 195.862L38.0194 123.723L31.9944 122.508L20.2208 159.121L29.6428 194.969Z" fill="#232323"/>
<path d="M43.7773 159.741C43.1553 179.753 36.8294 195.525 29.648 194.969C22.4667 194.413 17.1493 177.74 17.7714 157.728C18.3935 137.716 24.7194 121.944 31.9007 122.5C39.0821 123.056 44.3994 139.729 43.7773 159.741Z" fill="#232323"/>
<ellipse cx="13.2596" cy="36.2521" rx="13.2596" ry="36.2521" transform="matrix(0.997016 0.0771886 -0.0310696 0.999517 24.5098 122.612)" fill="#474747"/>
<ellipse cx="3.4562" cy="9.60711" rx="3.4562" ry="9.60711" transform="matrix(0.997016 0.0771886 -0.0310696 0.999517 34.4385 150.026)" fill="black"/>
<path d="M368.303 189.185L364.871 189.936L361.87 129.31L366.497 128.289L375.54 159.059L368.303 189.185Z" fill="#232323"/>
<path d="M357.448 159.58C357.926 176.398 362.784 189.653 368.299 189.185C373.815 188.718 377.898 174.706 377.421 157.888C376.943 141.07 372.085 127.815 366.569 128.282C361.054 128.75 356.97 142.762 357.448 159.58Z" fill="#232323"/>
<ellipse cx="10.1895" cy="30.4639" rx="10.1895" ry="30.4639" transform="matrix(-0.99643 0.0844145 0.0283956 0.999597 372.25 128.377)" fill="#474747"/>
<ellipse cx="2.65595" cy="8.07317" rx="2.65595" ry="8.07317" transform="matrix(-0.99643 0.0844147 0.0283956 0.999597 364.623 151.414)" fill="black"/>
<path d="M360.083 194.968L355.614 195.862L351.706 123.723L357.731 122.508L369.505 159.121L360.083 194.968Z" fill="#232323"/>
<path d="M345.948 159.741C346.57 179.753 352.896 195.525 360.078 194.969C367.259 194.413 372.576 177.739 371.954 157.727C371.332 137.716 365.006 121.944 357.825 122.499C350.644 123.055 345.326 139.729 345.948 159.741Z" fill="#232323"/>
<ellipse cx="13.2596" cy="36.2521" rx="13.2596" ry="36.2521" transform="matrix(-0.997016 0.0771887 0.0310696 0.999517 365.221 122.613)" fill="#474747"/>
<ellipse cx="3.4562" cy="9.60711" rx="3.4562" ry="9.60711" transform="matrix(-0.997016 0.0771886 0.0310697 0.999517 355.289 150.025)" fill="black"/>
<path fill-rule="evenodd" clip-rule="evenodd" d="M36.7959 159.894C36.7959 157.721 38.5611 155.959 40.7386 155.959H348.929C351.107 155.959 352.872 157.721 352.872 159.894C352.872 162.067 351.107 163.828 348.929 163.828H40.7386C38.5611 163.828 36.7959 162.067 36.7959 159.894Z" fill="#F8D14F"/>
<path d="M67.0299 168.019C70.0306 167.899 71.536 165.29 71.9136 164V163.832H65.0246L65.1167 162.945L66.5264 161.237L65.6957 160.031L65.4439 158.046L64.0846 157.393V155.635L62.7 154.73L59.3267 156.363L57.6904 158.046L58.7226 159.729L57.917 161.438L59.075 162.945L57.6904 165.281L59.3267 166.236V168.22L60.8371 169.125L63.1028 167.567C63.1615 167.768 64.0292 168.14 67.0299 168.019Z" fill="#D78A80"/>
<path d="M58.9297 155.959H59.5422C61.4982 155.536 63.519 155.775 64.2849 155.947H82.4769L80.1293 147.819C76.7537 148.781 68.9525 150.937 64.7529 151.861C60.5533 152.785 59.1209 154.978 58.9297 155.959Z" fill="#D78A80"/>
<path fill-rule="evenodd" clip-rule="evenodd" d="M61.9055 160.996C61.8998 161.013 61.8869 161.068 61.9254 161.183C62.0843 161.658 62.1512 162.282 62.172 162.914C62.1931 163.556 62.1676 164.247 62.1229 164.878C62.0523 165.876 62.3434 166.721 63.0177 167.029C64.4243 167.673 66.3073 167.643 67.9992 167.349C69.4929 167.089 70.6462 165.902 71.1881 164.384L71.3949 163.829H72.4166L72.1166 164.715C71.49 166.469 70.1031 167.981 68.1686 168.318C66.4132 168.624 64.2876 168.693 62.6068 167.923C61.3509 167.348 61.0606 165.926 61.1397 164.809C61.1829 164.198 61.2065 163.543 61.1868 162.946C61.1669 162.34 61.1031 161.831 60.9903 161.494C60.8993 161.221 60.8831 160.942 60.9721 160.68C61.0616 160.417 61.2408 160.221 61.452 160.089C61.8566 159.836 62.3984 159.798 62.8965 159.892C63.9132 160.084 65.0756 160.891 65.2626 162.416C65.3894 163.449 65.4173 164.23 65.3981 164.793C65.3797 165.333 65.3168 165.72 65.227 165.931C65.1205 166.181 64.8311 166.297 64.5806 166.191C64.3301 166.085 64.2134 165.796 64.3199 165.546C64.3208 165.544 64.3265 165.528 64.3348 165.494C64.344 165.457 64.3545 165.405 64.3649 165.337C64.3857 165.201 64.4044 165.01 64.413 164.759C64.4301 164.257 64.4061 163.529 64.2842 162.535C64.1605 161.527 63.406 160.99 62.7131 160.859C62.3564 160.791 62.0952 160.847 61.9753 160.922C61.9242 160.954 61.9107 160.981 61.9055 160.996Z" fill="black"/>
<path fill-rule="evenodd" clip-rule="evenodd" d="M62.0565 164.568C62.2008 164.799 62.1306 165.102 61.8998 165.246L60.1974 166.308C59.6285 166.662 59.4499 167.407 59.796 167.98C60.1125 168.505 60.8085 168.651 61.31 168.298L62.826 167.233C63.0485 167.076 63.3559 167.129 63.5127 167.351C63.6695 167.573 63.6162 167.88 63.3937 168.037L61.8777 169.103C60.9084 169.784 59.5633 169.502 58.9516 168.488C58.3279 167.455 58.6499 166.113 59.675 165.474L61.3774 164.412C61.6082 164.268 61.9123 164.338 62.0565 164.568Z" fill="black"/>
<path fill-rule="evenodd" clip-rule="evenodd" d="M61.8436 161.281C62.0002 161.504 61.9467 161.81 61.724 161.967L58.8803 163.963C58.4613 164.257 58.2897 164.793 58.4603 165.275C58.5729 165.593 58.9104 165.773 59.2377 165.689L59.5507 165.608C59.8143 165.54 60.083 165.699 60.1509 165.962C60.2188 166.225 60.0602 166.493 59.7966 166.561L59.4836 166.641C58.6614 166.853 57.8137 166.402 57.5309 165.603C57.2131 164.705 57.5328 163.706 58.3132 163.158L61.1569 161.162C61.3796 161.006 61.687 161.059 61.8436 161.281Z" fill="black"/>
<path fill-rule="evenodd" clip-rule="evenodd" d="M65.6334 160.913C65.4386 160.658 65.092 160.573 64.8012 160.709L64.26 160.963C64.0136 161.078 63.7201 160.972 63.6044 160.726C63.4888 160.481 63.5948 160.188 63.8412 160.072L64.3824 159.819C65.0934 159.486 65.9408 159.693 66.4172 160.316C66.9745 161.045 66.8357 162.087 66.1068 162.645L65.4362 163.159C65.2203 163.325 64.9109 163.284 64.7451 163.069C64.5793 162.853 64.62 162.545 64.8359 162.379L65.5065 161.865C65.8046 161.637 65.8614 161.211 65.6334 160.913Z" fill="black"/>
<path fill-rule="evenodd" clip-rule="evenodd" d="M64.6779 158.241C64.2235 157.927 63.6314 157.895 63.1454 158.157L59.0644 160.356C58.8326 160.481 58.67 160.704 58.622 160.962C58.5496 161.353 58.6857 161.752 58.9813 162.018L59.4428 162.432C59.6451 162.614 59.6615 162.925 59.4794 163.127C59.2974 163.329 58.9857 163.345 58.7834 163.163L58.3219 162.749C57.7714 162.254 57.5179 161.51 57.6528 160.783C57.7551 160.232 58.1019 159.757 58.596 159.49L62.677 157.291C63.4892 156.854 64.4788 156.908 65.2382 157.431C65.7358 157.774 66.0329 158.34 66.0329 158.943V160.233C66.0329 160.504 65.8122 160.724 65.54 160.724C65.2678 160.724 65.0472 160.504 65.0472 160.233V158.943C65.0472 158.663 64.9091 158.4 64.6779 158.241Z" fill="black"/>
<path fill-rule="evenodd" clip-rule="evenodd" d="M62.8334 155.418C62.6116 155.343 62.3679 155.37 62.1683 155.492L58.7258 157.598C58.2651 157.88 58.1617 158.504 58.507 158.918L59.0313 159.548C59.2052 159.757 59.1765 160.067 58.9671 160.241C58.7578 160.414 58.4471 160.386 58.2731 160.177L57.7489 159.547C57.0199 158.671 57.2381 157.354 58.2107 156.759L61.6532 154.654C62.1023 154.379 62.6505 154.317 63.1495 154.486C64.1209 154.814 64.7225 155.784 64.5839 156.798L64.5106 157.335C64.4738 157.604 64.2253 157.792 63.9557 157.756C63.686 157.719 63.4971 157.471 63.5339 157.202L63.6073 156.665C63.682 156.118 63.3575 155.595 62.8334 155.418Z" fill="black"/>
<path fill-rule="evenodd" clip-rule="evenodd" d="M79.7584 148.472L79.2963 148.643C76.7047 149.601 70.9326 151.379 66.6409 152.007C62.5535 152.605 60.0791 154.452 59.2293 155.569L58.9312 155.96H57.8584L58.1408 155.597C59.1174 154.314 62.1109 151.675 66.498 151.034C70.6806 150.422 76.773 148.662 79.3562 147.707L79.8183 147.536L79.7584 148.472Z" fill="black"/>
<path d="M324.708 168.019C321.708 167.898 320.202 165.289 319.825 164V163.832H326.714L326.622 162.944L325.212 161.236L326.043 160.03L326.294 158.046L327.654 157.393V155.634L329.038 154.73L332.412 156.363L334.048 158.046L333.016 159.729L333.821 161.437L332.663 162.944L334.048 165.281L332.412 166.235V168.22L330.901 169.124L328.635 167.567C328.577 167.768 327.709 168.139 324.708 168.019Z" fill="#D78A80"/>
<path d="M332.811 155.957H332.198C330.242 155.534 328.221 155.772 327.455 155.944H309.263L311.611 147.816C314.987 148.779 322.788 150.935 326.987 151.859C331.187 152.783 332.619 154.976 332.811 155.957Z" fill="#D78A80"/>
<path fill-rule="evenodd" clip-rule="evenodd" d="M329.831 160.998C329.836 161.014 329.849 161.069 329.811 161.184C329.652 161.66 329.585 162.283 329.564 162.915C329.543 163.557 329.569 164.248 329.613 164.88C329.684 165.877 329.393 166.722 328.719 167.031C327.312 167.674 325.429 167.645 323.737 167.35C322.243 167.09 321.09 165.903 320.548 164.386L320.341 163.83H319.32L319.62 164.716C320.246 166.47 321.633 167.983 323.568 168.319C325.323 168.625 327.449 168.694 329.13 167.925C330.385 167.35 330.676 165.927 330.597 164.811C330.553 164.2 330.53 163.545 330.549 162.948C330.569 162.341 330.633 161.833 330.746 161.495C330.837 161.223 330.853 160.943 330.764 160.681C330.675 160.418 330.495 160.222 330.284 160.09C329.88 159.837 329.338 159.8 328.84 159.894C327.823 160.086 326.661 160.893 326.474 162.417C326.347 163.451 326.319 164.232 326.338 164.794C326.357 165.334 326.42 165.722 326.509 165.932C326.616 166.182 326.905 166.299 327.156 166.193C327.406 166.086 327.523 165.797 327.416 165.548C327.416 165.545 327.41 165.529 327.402 165.496C327.392 165.458 327.382 165.406 327.371 165.338C327.351 165.202 327.332 165.012 327.323 164.761C327.306 164.259 327.33 163.53 327.452 162.537C327.576 161.528 328.33 160.991 329.023 160.86C329.38 160.793 329.641 160.849 329.761 160.924C329.812 160.956 329.826 160.982 329.831 160.998Z" fill="black"/>
<path fill-rule="evenodd" clip-rule="evenodd" d="M329.679 164.569C329.535 164.8 329.605 165.103 329.836 165.247L331.538 166.309C332.107 166.664 332.285 167.408 331.939 167.982C331.623 168.506 330.927 168.652 330.425 168.3L328.909 167.234C328.687 167.077 328.379 167.131 328.223 167.353C328.066 167.575 328.119 167.881 328.342 168.038L329.858 169.104C330.827 169.785 332.172 169.503 332.784 168.489C333.407 167.456 333.085 166.114 332.06 165.475L330.358 164.413C330.127 164.269 329.823 164.339 329.679 164.569Z" fill="black"/>
<path fill-rule="evenodd" clip-rule="evenodd" d="M329.889 161.284C329.732 161.506 329.786 161.813 330.008 161.969L332.852 163.965C333.271 164.26 333.443 164.796 333.272 165.278C333.16 165.596 332.822 165.775 332.495 165.691L332.182 165.611C331.918 165.543 331.649 165.701 331.582 165.964C331.514 166.227 331.672 166.496 331.936 166.563L332.249 166.644C333.071 166.855 333.919 166.404 334.202 165.606C334.519 164.708 334.2 163.709 333.419 163.161L330.575 161.165C330.353 161.009 330.045 161.062 329.889 161.284Z" fill="black"/>
<path fill-rule="evenodd" clip-rule="evenodd" d="M326.11 160.912C326.305 160.657 326.651 160.572 326.942 160.709L327.483 160.962C327.73 161.078 328.023 160.972 328.139 160.726C328.254 160.48 328.148 160.187 327.902 160.072L327.361 159.818C326.65 159.485 325.802 159.692 325.326 160.316C324.769 161.045 324.907 162.086 325.636 162.645L326.307 163.159C326.523 163.324 326.832 163.284 326.998 163.068C327.164 162.853 327.123 162.544 326.907 162.379L326.237 161.865C325.939 161.636 325.882 161.21 326.11 160.912Z" fill="black"/>
<path fill-rule="evenodd" clip-rule="evenodd" d="M327.062 158.241C327.517 157.928 328.109 157.895 328.595 158.157L332.676 160.356C332.908 160.481 333.07 160.704 333.118 160.962C333.191 161.353 333.055 161.753 332.759 162.018L332.297 162.433C332.095 162.614 332.079 162.925 332.261 163.127C332.443 163.329 332.754 163.345 332.957 163.164L333.418 162.749C333.969 162.255 334.222 161.51 334.087 160.783C333.985 160.232 333.638 159.757 333.144 159.491L329.063 157.292C328.251 156.854 327.261 156.908 326.502 157.432C326.004 157.775 325.707 158.34 325.707 158.943V160.233C325.707 160.504 325.928 160.725 326.2 160.725C326.472 160.725 326.693 160.504 326.693 160.233V158.943C326.693 158.663 326.831 158.4 327.062 158.241Z" fill="black"/>
<path fill-rule="evenodd" clip-rule="evenodd" d="M328.904 155.417C329.126 155.342 329.369 155.37 329.569 155.492L333.011 157.597C333.472 157.879 333.576 158.503 333.23 158.918L332.706 159.548C332.532 159.756 332.561 160.067 332.77 160.24C332.98 160.414 333.29 160.385 333.464 160.176L333.988 159.546C334.717 158.671 334.499 157.354 333.527 156.759L330.084 154.653C329.635 154.378 329.087 154.317 328.588 154.486C327.616 154.814 327.015 155.783 327.153 156.797L327.227 157.334C327.264 157.603 327.512 157.792 327.782 157.755C328.051 157.718 328.24 157.471 328.203 157.201L328.13 156.665C328.055 156.117 328.38 155.594 328.904 155.417Z" fill="black"/>
<path fill-rule="evenodd" clip-rule="evenodd" d="M311.448 148.181L311.91 148.352C314.502 149.31 320.811 151.381 325.102 152.008C329.19 152.606 331.664 154.453 332.514 155.57L332.812 155.962H333.885L333.602 155.598C332.626 154.315 329.632 151.677 325.245 151.035C321.063 150.423 314.433 148.371 311.85 147.416L311.388 147.245L311.448 148.181Z" fill="black"/>
</svg>
