<svg width="350" height="250" viewBox="0 0 350 250" fill="none" xmlns="http://www.w3.org/2000/svg">
<g clip-path="url(#clip0_68_464)">
<path d="M40.7676 117.18C40.7676 116.822 41.0578 116.532 41.4157 116.532H303.477C303.835 116.532 304.125 116.822 304.125 117.18V125.84C304.125 126.198 303.834 126.486 303.477 126.503C296.294 126.841 290.574 132.772 290.574 140.039C290.574 147.306 296.294 153.238 303.477 153.576C303.834 153.593 304.125 153.881 304.125 154.239V161.268C304.125 161.626 303.834 161.914 303.477 161.931C296.294 162.269 290.574 168.2 290.574 175.467C290.574 182.734 296.294 188.666 303.477 189.004C303.834 189.021 304.125 189.309 304.125 189.667V196.696C304.125 197.054 303.834 197.342 303.477 197.359C296.294 197.697 290.574 203.628 290.574 210.895C290.574 218.162 296.294 224.094 303.477 224.432C303.834 224.449 304.125 224.737 304.125 225.095V233.755C304.125 234.113 303.835 234.403 303.477 234.403H41.4157C41.0578 234.403 40.7676 234.113 40.7676 233.755V225.11C40.7676 224.735 41.0846 224.44 41.4593 224.445C41.531 224.446 41.6028 224.447 41.6747 224.447C49.1591 224.447 55.2263 218.38 55.2263 210.895C55.2263 203.411 49.1591 197.344 41.6747 197.344C41.6028 197.344 41.531 197.344 41.4593 197.345C41.0846 197.351 40.7676 197.056 40.7676 196.681V189.682C40.7676 189.307 41.0846 189.012 41.4593 189.017C41.531 189.018 41.6028 189.019 41.6747 189.019C49.1591 189.019 55.2263 182.952 55.2263 175.467C55.2263 167.983 49.1591 161.916 41.6747 161.916C41.6028 161.916 41.531 161.916 41.4593 161.917C41.0846 161.923 40.7676 161.628 40.7676 161.253V154.254C40.7676 153.879 41.0846 153.584 41.4593 153.589C41.531 153.59 41.6028 153.591 41.6747 153.591C49.1591 153.591 55.2263 147.524 55.2263 140.039C55.2263 132.555 49.1591 126.488 41.6747 126.488C41.6028 126.488 41.531 126.488 41.4593 126.489C41.0846 126.495 40.7676 126.2 40.7676 125.825V117.18Z" fill="#1BB1F8"/>
<path fill-rule="evenodd" clip-rule="evenodd" d="M96.9687 119.155C97.5414 119.155 98.0057 119.619 98.0057 120.192V124.811C98.0057 125.384 97.5414 125.848 96.9687 125.848C96.3959 125.848 95.9316 125.384 95.9316 124.811V120.192C95.9316 119.619 96.3959 119.155 96.9687 119.155ZM96.9687 130.391C97.5414 130.391 98.0057 130.855 98.0057 131.428V140.666C98.0057 141.239 97.5414 141.703 96.9687 141.703C96.3959 141.703 95.9316 141.239 95.9316 140.666V131.428C95.9316 130.855 96.3959 130.391 96.9687 130.391ZM96.9687 146.246C97.5414 146.246 98.0057 146.71 98.0057 147.283V156.521C98.0057 157.094 97.5414 157.558 96.9687 157.558C96.3959 157.558 95.9316 157.094 95.9316 156.521V147.283C95.9316 146.71 96.3959 146.246 96.9687 146.246ZM96.9687 162.1C97.5414 162.1 98.0057 162.565 98.0057 163.137V172.376C98.0057 172.948 97.5414 173.413 96.9687 173.413C96.3959 173.413 95.9316 172.948 95.9316 172.376V163.137C95.9316 162.565 96.3959 162.1 96.9687 162.1ZM96.9687 177.955C97.5414 177.955 98.0057 178.42 98.0057 178.992V188.231C98.0057 188.803 97.5414 189.268 96.9687 189.268C96.3959 189.268 95.9316 188.803 95.9316 188.231V178.992C95.9316 178.42 96.3959 177.955 96.9687 177.955ZM96.9687 193.81C97.5414 193.81 98.0057 194.274 98.0057 194.847V204.085C98.0057 204.658 97.5414 205.122 96.9687 205.122C96.3959 205.122 95.9316 204.658 95.9316 204.085V194.847C95.9316 194.274 96.3959 193.81 96.9687 193.81ZM96.9687 209.665C97.5414 209.665 98.0057 210.129 98.0057 210.702V219.94C98.0057 220.513 97.5414 220.977 96.9687 220.977C96.3959 220.977 95.9316 220.513 95.9316 219.94V210.702C95.9316 210.129 96.3959 209.665 96.9687 209.665ZM96.9687 225.52C97.5414 225.52 98.0057 225.984 98.0057 226.557V231.176C98.0057 231.749 97.5414 232.213 96.9687 232.213C96.3959 232.213 95.9316 231.749 95.9316 231.176V226.557C95.9316 225.984 96.3959 225.52 96.9687 225.52Z" fill="black"/>
<rect width="25.6765" height="31.82" transform="translate(65.5664 195.693)" fill="white"/>
<path d="M69.4326 225.439H67.6406V197.767H69.4326V225.439ZM76.4541 225.439H71.6973V197.767H76.4541V225.439ZM80.1143 225.439H78.7207V197.767H80.1143V225.439ZM85.1035 225.439H82.3789V197.767H85.1035V225.439ZM89.1689 225.439H87.3691V197.767H89.1689V225.439Z" fill="black"/>
<path d="M221.537 126.745C211.84 134.031 205.484 135.571 203.518 135.431C190.555 161.745 205.506 168.043 214.601 167.903L262.274 120.044C263.791 118.522 264.975 116.702 265.753 114.699L276.37 87.3704L267.717 71.4908L250.276 104.23C249.088 106.46 247.376 108.36 245.293 109.789C239.351 113.868 229.554 120.721 221.537 126.745Z" fill="#FFA59A"/>
<path d="M128.265 113.852L163.786 142.333L157.985 171.857L113.64 126.804C112.089 125.228 110.893 123.343 110.128 121.267C103.659 103.704 92.101 72.5072 89.7352 66.8242C87.2203 60.7835 82.0762 58.2146 79.8185 57.6853C73.0259 55.0409 73.7475 50.0804 74.9574 47.9307L73.2074 45.8566C73.0777 43.7048 75.0114 43.3828 75.9944 43.4909C76.7463 40.0946 79.246 41.1467 80.4018 42.0974C82.2426 40.8011 83.675 41.3196 84.1611 41.7409L85.3926 40.3473C86.9222 39.4399 88.4497 41.5896 89.0222 42.7779C93.0481 45.4387 94.7923 51.9281 95.3052 55.7964C95.4163 56.6342 95.6511 57.4523 96.061 58.1913L124.381 109.252C125.364 111.024 126.683 112.586 128.265 113.852Z" fill="#FFA59A"/>
<path fill-rule="evenodd" clip-rule="evenodd" d="M303.495 60.6058C304.031 59.5131 303.58 58.1928 302.487 57.6568C257.069 35.3757 167.729 10.7455 69.8511 52.815C68.7329 53.2956 68.2161 54.5916 68.6967 55.7098C69.1773 56.828 70.4733 57.3448 71.5915 56.8642C167.923 15.4595 255.871 39.6972 300.546 61.6137C301.639 62.1497 302.959 61.6985 303.495 60.6058Z" fill="#1BB1F8"/>
<path fill-rule="evenodd" clip-rule="evenodd" d="M256.136 42.5764C256.457 41.4023 255.765 40.1906 254.591 39.87C183.621 20.4894 95.6831 26.5287 13.6007 84.4953C12.6065 85.1974 12.3698 86.5725 13.0718 87.5666C13.7739 88.5608 15.149 88.7976 16.1431 88.0955C97.0398 30.9662 183.593 25.0506 253.43 44.1217C254.604 44.4423 255.816 43.7505 256.136 42.5764Z" fill="#1BB1F8"/>
<path d="M258.795 84.3656L264.478 87.8109L299.113 21.8342L291.456 17.1793L260.631 44.9687L258.795 84.3656Z" fill="#EF850B"/>
<path d="M292.25 59.2606C283.267 77.8317 268.292 89.0731 258.802 84.369C249.312 79.6649 248.901 60.7966 257.884 42.2255C266.867 23.6543 281.842 12.4129 291.332 17.117C300.822 21.8211 301.233 40.6894 292.25 59.2606Z" fill="#EF850B"/>
<ellipse cx="20.5987" cy="37.3533" rx="20.5987" ry="37.3533" transform="matrix(0.895967 0.444121 -0.435444 0.900216 279.305 11.9438)" fill="#FFB140"/>
<ellipse cx="5.08245" cy="9.89893" rx="5.08245" ry="9.89893" transform="matrix(0.895967 0.444121 -0.435444 0.900216 283.564 44.6331)" fill="black"/>
<path d="M266.073 96.7358L273.766 102.088L325.317 20.8233L314.951 13.5957L270.731 45.4226L266.073 96.7358Z" fill="#EF850B"/>
<path d="M313.796 68.8128C300.348 91.8004 278.986 104.304 266.083 96.7413C253.179 89.1782 253.621 64.412 267.07 41.4244C280.518 18.4368 301.88 5.9328 314.784 13.4959C327.687 21.059 327.245 45.8252 313.796 68.8128Z" fill="#EF850B"/>
<ellipse cx="29.5901" cy="48.2223" rx="29.5901" ry="48.2223" transform="matrix(0.862723 0.505677 -0.504961 0.863142 297.24 4.29906)" fill="#FFB140"/>
<ellipse cx="14.8143" cy="26.071" rx="14.8143" ry="26.071" transform="matrix(0.862723 0.505677 -0.504961 0.863142 300.643 31.4863)" fill="white"/>
<path d="M76.7939 103.553L85.2966 99.6123L41.157 14.0962L29.6863 19.3969L34.8454 73.6351L76.7939 103.553Z" fill="#EF850B"/>
<path d="M76.7727 48.2609C89.8309 71.4724 89.8446 96.225 76.8033 103.548C63.7621 110.87 42.6042 97.9894 29.5461 74.778C16.4879 51.5666 16.4741 26.8139 29.5154 19.4914C42.5567 12.169 63.7145 25.0495 76.7727 48.2609Z" fill="#EF850B"/>
<ellipse cx="29.5901" cy="48.2223" rx="29.5901" ry="48.2223" transform="matrix(0.871953 -0.489589 0.490311 0.871547 12.7227 29.9945)" fill="#FFB140"/>
<ellipse cx="14.8143" cy="26.071" rx="14.8143" ry="26.071" transform="matrix(0.871953 -0.489589 0.490311 0.871547 37.4531 41.5626)" fill="#929090"/>
<ellipse cx="64.2705" cy="57.5356" rx="3.31851" ry="4.12505" transform="rotate(-26.6301 64.2705 57.5356)" fill="#474747"/>
<path d="M76.9831 90.1638L83.0451 87.4406L48.3837 21.4776L40.2051 25.1399L45.589 66.2912L76.9831 90.1638Z" fill="#EF850B"/>
<path d="M75.3023 48.3703C85.4936 66.3068 86.2491 85.0168 76.9898 90.1601C67.7304 95.3035 51.9625 84.9326 41.7712 66.996C31.5799 49.0595 30.8244 30.3496 40.0837 25.2062C49.3431 20.0628 65.111 30.4337 75.3023 48.3703Z" fill="#EF850B"/>
<ellipse cx="20.5987" cy="37.3533" rx="20.5987" ry="37.3533" transform="matrix(0.874186 -0.485591 0.494013 0.869454 28.998 32.1716)" fill="#FFB140"/>
<ellipse cx="10.1416" cy="19.7524" rx="10.1416" ry="19.7524" transform="matrix(0.874186 -0.485591 0.494013 0.869454 51.2031 43.3586)" fill="white"/>
<path d="M335.856 80.2078C325.598 72.8835 314.253 66.1052 302.005 60.0877" stroke="#1BB1F8" stroke-width="4.40741" stroke-linecap="round"/>
<path d="M128.265 113.852L163.786 142.333L157.985 171.857L113.64 126.804C112.089 125.228 110.893 123.343 110.128 121.267C103.659 103.704 92.101 72.5072 89.7352 66.8242C87.2203 60.7835 82.0762 58.2146 79.8185 57.6853C73.0259 55.0409 73.7475 50.0804 74.9574 47.9307L73.2074 45.8566C73.0777 43.7048 75.0114 43.3828 75.9944 43.4909C76.7463 40.0946 79.246 41.1467 80.4018 42.0974C82.2426 40.8011 83.675 41.3196 84.1611 41.7409L85.3926 40.3473C86.9222 39.4399 88.4497 41.5896 89.0222 42.7779C93.0481 45.4387 94.7923 51.9281 95.3052 55.7964C95.4163 56.6342 95.6511 57.4523 96.061 58.1913L124.381 109.252C125.364 111.024 126.683 112.586 128.265 113.852Z" fill="#FFA59A"/>
<path d="M203.842 135.398C199.902 135.476 196.324 133.53 195.028 132.547L172.504 135.398C170.829 137.615 168.225 139.428 166.048 140.642C164.238 141.651 162.633 143.088 161.877 145.017C149.222 177.314 161.843 217.774 172.342 234.403H228.278C213.474 214.207 213.1 181.547 214.764 167.741C196.304 166.341 199.791 145.596 203.842 135.398Z" fill="#F4F5FF"/>
<path d="M172.342 234.403H228.278C223.68 228.131 220.475 220.657 218.29 212.919H162.75C165.603 221.746 169.075 229.228 172.342 234.403Z" fill="black"/>
<path fill-rule="evenodd" clip-rule="evenodd" d="M247.05 40.1846C247.328 38.9997 246.593 37.8137 245.408 37.5355C198.03 26.4118 135.878 24.4363 69.8527 52.8151C68.7346 53.2957 68.2177 54.5917 68.6983 55.7099C69.1789 56.828 70.475 57.3449 71.5931 56.8643C136.58 28.9317 197.74 30.871 244.401 41.8262C245.586 42.1044 246.772 41.3694 247.05 40.1846Z" fill="#1BB1F8"/>
<path d="M209.109 88.9075C208.605 97.5401 206.613 103.558 204.532 106.342L198.286 105.575L198.232 92.514C202.298 92.7386 207.178 90.2032 209.109 88.9075Z" fill="#FFA59A"/>
<path d="M209.109 88.9075C208.605 97.5401 206.613 103.558 204.532 106.342L198.286 105.575L198.232 92.514C202.298 92.7386 207.178 90.2032 209.109 88.9075Z" fill="url(#paint0_linear_68_464)"/>
<path d="M189.814 70.8843C174.822 69.5976 168.279 81.3988 166.881 87.4602C184.597 96.8577 205.249 93.0061 209.09 89.0825C208.911 83.5525 204.806 72.1709 189.814 70.8843Z" fill="#3F0929"/>
<path d="M165.176 120.658L166.833 87.4987C170.587 89.6785 182.336 93.7657 199.294 92.6763L199.079 102.512C199.075 102.704 199.255 102.849 199.442 102.803L200.501 102.547C202.588 102.041 204.587 103.65 204.54 105.797C204.501 107.602 203.005 109.034 201.199 108.995L199.831 108.965L196.058 135.401C194.804 144.182 186.792 150.371 177.98 149.367C174.496 148.97 172.073 145.712 172.694 142.262L174.884 130.098C169.464 130.521 164.905 126.087 165.176 120.658Z" fill="#FFA59A"/>
<path fill-rule="evenodd" clip-rule="evenodd" d="M171.217 97.8843C170.304 98.0199 169.699 98.4758 169.532 98.7709C169.324 99.1366 168.86 99.2648 168.494 99.0572C168.128 98.8496 168 98.3849 168.208 98.0192C168.681 97.1851 169.791 96.5567 170.993 96.3782C172.249 96.1916 173.735 96.4679 175.038 97.6041C175.355 97.8805 175.388 98.3614 175.112 98.6783C174.835 98.9952 174.354 99.0281 174.037 98.7517C173.103 97.9365 172.076 97.7568 171.217 97.8843Z" fill="black"/>
<path fill-rule="evenodd" clip-rule="evenodd" d="M184.33 98.6963C183.408 98.7183 182.751 99.0961 182.549 99.3683C182.298 99.7056 181.821 99.7754 181.483 99.5243C181.146 99.2732 181.076 98.7963 181.327 98.459C181.9 97.6896 183.079 97.203 184.294 97.1741C185.563 97.1439 187.004 97.6014 188.157 98.8896C188.437 99.203 188.411 99.6843 188.097 99.9647C187.784 100.245 187.303 100.218 187.022 99.905C186.195 98.9808 185.198 98.6757 184.33 98.6963Z" fill="black"/>
<path fill-rule="evenodd" clip-rule="evenodd" d="M177.245 107.69C176.875 107.693 176.578 107.996 176.582 108.365L176.602 110.436C176.02 110.493 175.476 110.662 175.025 110.961C174.373 111.395 173.958 112.075 173.918 112.935C173.835 114.679 175.38 116.006 177.143 116.089C177.512 116.107 177.826 115.822 177.843 115.453C177.86 115.084 177.575 114.77 177.206 114.753C175.989 114.695 175.215 113.825 175.254 112.998C175.274 112.573 175.46 112.279 175.765 112.076C176.093 111.859 176.597 111.725 177.245 111.756C177.429 111.765 177.608 111.697 177.741 111.57C177.873 111.442 177.948 111.265 177.946 111.081L177.92 108.352C177.916 107.983 177.614 107.686 177.245 107.69Z" fill="black"/>
<path d="M182.442 119.306C182.207 121.451 180.264 122.998 178.102 122.761C176.612 122.598 175.407 121.631 174.879 120.343C174.739 120.001 174.969 119.64 175.329 119.556L181.7 118.063C182.057 117.98 182.422 118.197 182.452 118.562C182.472 118.806 182.469 119.055 182.442 119.306Z" fill="white"/>
<ellipse cx="1.34538" cy="1.95692" rx="1.34538" ry="1.95692" transform="matrix(-0.99889 -0.0471088 -0.0471088 0.99889 184.482 102.042)" fill="black"/>
<ellipse cx="1.34538" cy="1.95692" rx="1.34538" ry="1.95692" transform="matrix(-0.999997 -0.00256426 -0.00256425 0.999997 173.176 101.599)" fill="black"/>
<path d="M173.778 136.245L174.884 130.099C177.901 130.108 184.973 129.527 189.296 126.446C188.793 129.273 184.979 135.097 173.778 136.245Z" fill="#D78A80"/>
<path d="M75.0905 47.8445C74.881 48.2268 74.6399 50.2719 74.5709 50.8386C77.9105 49.0942 79.4754 49.481 80.0641 49.2912C83.1971 53.5825 83.9196 50.227 83.9196 49.1827C86.6276 50.9629 87.0013 48.5601 87.0013 47.8058C88.3795 48.2268 89.4585 47.084 89.4585 46.2078C89.4775 42.8007 87.7713 40.9802 87.2966 40.5814C85.899 39.4071 84.8148 40.7729 84.3021 41.8363C82.2569 40.528 81.2381 41.6674 80.4406 42.256C77.1914 40.1721 76.1517 42.0957 76.0065 43.616C71.2985 43.5302 74.4382 47.7858 75.0905 47.8445Z" fill="#FFA59A"/>
<path fill-rule="evenodd" clip-rule="evenodd" d="M83.7844 41.8009C82.3934 41.0712 81.1821 41.8688 80.7448 42.3741L80.2547 41.95C80.7897 41.3319 82.3136 40.2974 84.0855 41.2269C84.651 41.5236 85.1901 42.1135 85.6559 42.8122C86.1269 43.5187 86.5451 44.3701 86.8566 45.2319C87.1676 46.0923 87.3775 46.9778 87.4213 47.7528C87.4641 48.5107 87.3522 49.24 86.9292 49.7044C86.6257 50.0374 86.2936 50.2336 85.9474 50.31C85.6028 50.3859 85.2717 50.3373 84.978 50.227C84.4021 50.0108 83.9329 49.5452 83.6736 49.1916L84.1963 48.8084C84.4123 49.1029 84.789 49.4637 85.2058 49.6202C85.4085 49.6963 85.6105 49.7205 85.8078 49.677C86.0034 49.6339 86.222 49.5181 86.45 49.2678C86.6913 49.003 86.8144 48.5008 86.7742 47.7893C86.7349 47.0948 86.5437 46.2729 86.2471 45.4522C85.9509 44.6329 85.555 43.8294 85.1166 43.1718C84.6729 42.5063 84.2074 42.0228 83.7844 41.8009Z" fill="black"/>
<path fill-rule="evenodd" clip-rule="evenodd" d="M82.1862 45.6852C82.4078 45.989 82.5184 46.3659 82.509 46.8033C82.4798 48.1587 81.7016 48.9793 80.7828 49.4368C80.0146 49.8192 78.4778 49.6742 77.6045 49.6049C77.3938 49.5881 77.2352 49.3991 77.2604 49.1892C77.283 49.0014 77.4454 48.8644 77.6334 48.8848C78.4177 48.97 79.8274 49.1884 80.4939 48.8566C81.2554 48.4774 81.8383 47.8451 81.861 46.7894C81.8678 46.4732 81.789 46.2405 81.6625 46.0672C81.5346 45.8918 81.3403 45.7533 81.0778 45.6585C80.5435 45.4655 79.7737 45.4722 78.9288 45.681C78.0912 45.8879 77.2186 46.2844 76.4952 46.8237C75.7701 47.3643 75.2152 48.0326 74.9748 48.7757C74.4615 50.3622 74.482 52.0633 75.2361 53.579C75.9889 55.0923 77.493 56.4612 80.0235 57.3469C85.1728 59.1491 88.2201 62.8636 89.8974 66.4622C89.973 66.6244 89.8993 66.8159 89.7359 66.8889C89.5725 66.9618 89.3812 66.8886 89.3055 66.7264C87.6819 63.2479 84.7502 59.6879 79.8094 57.9587C77.1547 57.0295 75.4991 55.5628 74.6558 53.8677C74.21 52.9716 73.9969 52.023 73.9776 51.0735C73.9605 50.2297 74.0964 49.3851 74.3581 48.5762C74.6524 47.6666 75.3128 46.8968 76.1078 46.3041C76.9045 45.7102 77.8569 45.2782 78.7733 45.0517C79.6825 44.8271 80.5958 44.7953 81.298 45.0489C81.6539 45.1774 81.9661 45.3835 82.1862 45.6852Z" fill="black"/>
<path fill-rule="evenodd" clip-rule="evenodd" d="M85.2374 40.7805C84.8973 41.065 84.7002 41.4432 84.6352 41.6685L84.0125 41.4889C84.1095 41.1524 84.3726 40.6589 84.8216 40.2834C85.2826 39.8978 85.9387 39.6392 86.7834 39.8022C87.1046 39.8642 87.4138 40.0758 87.6902 40.3402C87.973 40.6108 88.2526 40.9669 88.5123 41.3712C89.0315 42.1797 89.4926 43.2148 89.7465 44.2304C89.9973 45.2339 90.0611 46.2789 89.7118 47.0691C89.5329 47.4738 89.2452 47.8112 88.8277 48.03C88.4142 48.2466 87.8983 48.3339 87.2803 48.286L87.3304 47.6398C87.8629 47.6811 88.2493 47.6013 88.5269 47.4559C88.8004 47.3125 88.9925 47.093 89.119 46.807C89.3803 46.2159 89.357 45.3448 89.1177 44.3876C88.8814 43.4427 88.4493 42.4725 87.9669 41.7214C87.7258 41.346 87.4775 41.0337 87.2421 40.8085C87.0004 40.5772 86.8013 40.4658 86.6606 40.4386C86.0276 40.3164 85.5656 40.5061 85.2374 40.7805Z" fill="black"/>
<path fill-rule="evenodd" clip-rule="evenodd" d="M78.2723 41.4617C77.8564 41.4545 77.4322 41.5909 77.0073 41.9294C76.3693 42.4377 76.2758 43.0995 76.4413 43.7778C76.6107 44.4726 77.0486 45.1429 77.4044 45.5444L76.9193 45.9742C76.5188 45.5223 76.0137 44.7602 75.8116 43.9313C75.6054 43.0859 75.7118 42.1328 76.6034 41.4225C77.1345 40.9994 77.7028 40.8036 78.2835 40.8137C78.8587 40.8236 79.4178 41.0348 79.9399 41.3764C80.9777 42.0553 81.9251 43.2846 82.6666 44.7016C83.4024 46.1078 83.9698 47.51 84.1889 48.7024C84.404 49.873 84.3028 50.9655 83.5209 51.587C83.1426 51.8877 82.7421 51.9973 82.3432 51.9447C81.9574 51.8939 81.6085 51.6962 81.3076 51.4507C80.7102 50.963 80.2077 50.2069 79.8676 49.6564L80.4191 49.3158C80.7596 49.8671 81.2131 50.5369 81.7175 50.9486C81.9675 51.1526 82.206 51.2729 82.4278 51.3021C82.6366 51.3296 82.8639 51.2812 83.1176 51.0796C83.5996 50.6965 83.7577 49.9418 83.5515 48.8196C83.3493 47.7192 82.8149 46.383 82.0923 45.0021C81.3755 43.6321 80.4918 42.5119 79.5851 41.9188C79.135 41.6244 78.6936 41.469 78.2723 41.4617Z" fill="black"/>
<path fill-rule="evenodd" clip-rule="evenodd" d="M74.0623 43.5197C74.65 43.2116 75.3555 43.2212 75.8612 43.2651L75.805 43.9109C75.3169 43.8684 74.7747 43.878 74.3632 44.0938C74.1656 44.1974 73.9961 44.3497 73.873 44.5775C73.7483 44.8084 73.6618 45.1345 73.6618 45.5972C73.6618 45.9614 73.872 46.3598 74.192 46.7351C74.5056 47.103 74.8852 47.4019 75.1328 47.5604L74.7834 48.1063C74.4909 47.9191 74.0603 47.5797 73.6988 47.1557C73.3436 46.7392 73.0137 46.1924 73.0137 45.5972C73.0137 45.0553 73.1149 44.6172 73.3028 44.2695C73.4923 43.9187 73.7603 43.6781 74.0623 43.5197Z" fill="black"/>
<path d="M74.9342 50.6885L73.86 51.1338C73.7335 52.1688 74.7943 54.3333 75.3405 55.2861L76.2819 54.8994L74.9342 50.6885Z" fill="#1BB1F8"/>
</g>
<defs>
<linearGradient id="paint0_linear_68_464" x1="203.713" y1="88.7894" x2="203.18" y2="113.138" gradientUnits="userSpaceOnUse">
<stop stop-color="#3F0929"/>
<stop offset="1" stop-color="#3F0929" stop-opacity="0"/>
</linearGradient>
<clipPath id="clip0_68_464">
<rect width="350" height="249.861" fill="white"/>
</clipPath>
</defs>
</svg>
