<svg width="110" height="110" viewBox="0 0 110 110" fill="none" xmlns="http://www.w3.org/2000/svg">
<g clip-path="url(#clip0_114_270)">
<circle cx="55" cy="55" r="55" fill="#1BB1F8"/>
<path d="M0.22266 59.9826C0.0752833 58.3414 0 56.6795 0 54.9999C0 48.3806 1.16934 42.0344 3.31272 36.1566C6.10479 35.4028 10.7105 35.5976 13.774 40.6786C17.4686 38.9227 25.8235 37.4961 29.6863 45.8363C32.0274 45.2876 37.6534 45.3535 41.4285 50.0065L0.22266 59.9826Z" fill="white"/>
<path d="M109.751 60.2675C109.916 58.5339 110 56.7768 110 55C110 47.2184 108.384 39.8142 105.47 33.1047C97.7588 33.4056 94.5394 38.6147 93.8846 41.3371C85.8956 38.7912 81.5572 43.349 80.3866 45.9462C75.997 45.2438 73.5827 48.7994 72.9243 50.665L109.751 60.2675Z" fill="white"/>
<path d="M0.0888672 58.1503C14.1195 52.6195 33.541 49.1962 55.0002 49.1962C76.4593 49.1962 95.8808 52.6195 109.911 58.1503C108.279 87.0601 84.3185 110 55.0002 110C25.6818 110 1.72138 87.0601 0.0888672 58.1503Z" fill="#058CCC"/>
<path d="M21.5381 98.6533L36.6839 80.2969L72.5343 83.6619L52.0079 109.92C40.5747 109.307 30.069 105.202 21.5381 98.6533Z" fill="black"/>
<path d="M10.5279 87.368C9.1732 85.51 7.93216 83.5639 6.81494 81.5398C8.27554 81.2032 9.72702 82.07 10.3629 82.6506C11.0089 77.8864 14.9387 77.9066 16.8229 78.5122C18.8416 74.8381 21.6435 75.8505 22.7921 76.816C23.5434 76.1072 24.6057 75.7866 25.4264 75.6636C25.6241 75.634 25.8229 75.6094 26.0216 75.5849C26.4129 75.5367 26.8042 75.4884 27.1879 75.401L32.4632 74.1994C26.5353 75.599 15.691 83.3144 10.5279 87.368Z" fill="white"/>
<path d="M32.63 74.1614L32.4632 74.1994C32.5192 74.1861 32.5748 74.1735 32.63 74.1614Z" fill="white"/>
<path d="M2.96431 72.8581C1.67844 69.1104 0.786045 65.18 0.336426 61.1161C5.27549 57.7452 10.392 60.7956 12.4544 62.9049C15.2986 56.9745 19.938 58.2935 21.9022 59.6943C24.1219 56.4276 26.6313 58.1542 27.6085 59.4259C33.0949 58.8342 38.1087 59.1793 39.9299 59.4259C22.5221 61.6691 8.4076 69.0762 2.96431 72.8581Z" fill="white"/>
<path d="M102.357 82.9865C95.1868 74.4849 78.1109 57.236 64.0527 52.7468C64.7559 52.6096 66.7909 52.6922 69.306 54.1205C69.8882 53.2278 71.6813 51.8771 74.1963 53.6159C75.503 53.0467 78.5123 52.6456 80.0958 55.5954C82.174 54.8831 86.6721 54.6914 88.0395 59.6226C91.6571 58.4234 99.4324 58.3456 101.592 67.6283C102.497 65.8413 105.278 62.481 109.513 62.3472C108.518 69.803 106.029 76.7864 102.357 82.9865Z" fill="white"/>
<path d="M66.2429 1.15004C62.6136 0.396186 58.8532 0 55.0002 0C50.777 0 46.665 0.47599 42.7148 1.37725L42.2803 12.2872L65.4945 13.2384L66.2429 1.15004Z" fill="#393838"/>
<path d="M65.8929 6.80341C63.6174 3.96118 59.5889 0.518885 54.5157 0.458492C48.8729 0.39132 44.5713 3.8179 42.5219 6.22085L42.2803 12.2873L65.4945 13.2385L65.8929 6.80341Z" fill="#FFB140"/>
<path d="M64.3911 8.57437C65.4216 10.1934 65.7685 12.208 65.3542 14.0819C64.2773 18.9535 59.4158 18.9535 53.8966 18.9535C48.1326 18.9535 43.3449 16.9355 42.4001 13.5545C42.1734 12.7434 42.2597 11.8749 42.5379 11.0801C43.7867 7.51335 48.1225 3.73022 53.8966 3.73022C58.9703 3.73022 62.4999 5.60303 64.3911 8.57437Z" fill="#202020"/>
<path d="M45.0726 28.9673L45.6056 6.79688C51.2911 1.72128 59.8949 3.86907 62.5957 6.4381L61.7806 28.9673L66.7481 53.4618H39.0737L45.0726 28.9673Z" fill="#FFF9BB"/>
<path d="M61.812 28.1199L61.7869 28.8152C57.1148 27.0305 52.9695 28.1481 51.3843 29.0041C51.224 29.0907 51.0238 29.0309 50.9372 28.8705C50.8506 28.7102 50.9104 28.51 51.0707 28.4234C52.7744 27.5033 57.0226 26.3689 61.812 28.1199Z" fill="black"/>
<path d="M36.805 59.6836C34.7495 65.5849 34.627 69.8938 34.8227 71.3106H70.6078C70.1792 66.5772 68.8398 54.9352 65.8396 50.917C59.7533 45.5419 48.482 46.7761 45.2135 47.8424C40.7769 49.2898 39.3744 52.3071 36.805 59.6836Z" fill="#FFB140"/>
<path d="M69.7439 64.1111C55.3426 54.1467 42.0085 58.5452 35.7448 63.2031C35.5965 63.788 35.4687 64.3491 35.3589 64.8843C40.8382 60.1393 54.8058 54.5303 69.956 65.5773C69.8899 65.0976 69.8193 64.6076 69.7439 64.1111Z" fill="white"/>
<path d="M70.2603 73.392L70.4801 72.4578C70.7387 71.3588 70.5824 70.2031 70.0412 69.2123C68.2066 65.8541 64.9464 63.5104 61.1787 62.8415L59.0161 62.4575C53.939 61.5561 48.728 61.7499 43.732 63.0259L41.7657 63.5282C38.7233 64.3052 36.2536 66.522 35.1537 69.4631C34.6332 70.8548 34.6845 72.3959 35.2964 73.7499L35.6781 74.5946C36.1086 75.5472 36.0701 76.6462 35.5739 77.5664C34.7546 79.0858 34.1096 80.693 33.6512 82.3573L33.5904 82.5782C33.3226 83.5502 34.0632 84.5071 35.0714 84.4915L71.3975 83.9327C72.6989 83.9127 73.7433 82.852 73.7433 81.5504V81.2226C73.7433 79.4655 72.9421 77.8043 71.567 76.7105L71.352 76.5394C70.4098 75.7899 69.9846 74.564 70.2603 73.392Z" fill="#F58C12"/>
<path d="M67.8518 73.3634L68.0397 72.5646C68.2608 71.6249 68.1272 70.6367 67.6644 69.7896C66.0958 66.9181 63.3082 64.9142 60.0866 64.3422L58.2375 64.0139C53.8964 63.2431 49.4407 63.4089 45.1689 64.5L43.4877 64.9294C40.8862 65.5938 38.7746 67.4892 37.8341 70.004C37.389 71.194 37.4329 72.5117 37.9561 73.6694L38.2825 74.3916C38.6506 75.2062 38.6177 76.1459 38.1934 76.9326C37.4929 78.2319 36.9414 79.6061 36.5494 81.0291L36.4974 81.2179C36.2685 82.0491 36.9017 82.8672 37.7637 82.854L68.8241 82.3761C69.9368 82.359 70.8299 81.4521 70.8299 80.3392V80.0588C70.8299 78.5565 70.1448 77.1361 68.969 76.2008L68.7852 76.0546C67.9796 75.4137 67.616 74.3655 67.8518 73.3634Z" fill="#B96300"/>
<path d="M38.4279 65.6536H66.7023V66.3212H38.4279V65.6536Z" fill="#F58C12"/>
<path d="M37.3279 69.3111H69.1773V69.9787H37.3279V69.3111Z" fill="#F58C12"/>
<path d="M37.3279 72.9686H69.1773V73.6362H37.3279V72.9686Z" fill="#F58C12"/>
<path d="M37.3279 76.6261H70.0023V77.2937H37.3279V76.6261Z" fill="#F58C12"/>
<path d="M35.3428 80.2836H71.659V80.9512H35.3428V80.2836Z" fill="#F58C12"/>
</g>
<defs>
<clipPath id="clip0_114_270">
<rect width="110" height="110" fill="white"/>
</clipPath>
</defs>
</svg>
